DidactGothic.ufo
<glyph name="exclam" format="1">
  <advance width="238"/>
  <unicode hex="0021"/>
  <outline>
    <contour>
      <point x="65" y="71"/>
      <point x="97" y="103"/>
      <point x="143" y="103"/>
      <point x="175" y="71"/>
      <point x="175" y="25"/>
      <point x="143" y="-8"/>
      <point x="97" y="-8"/>
      <point x="65" y="25"/>
    </contour>
    <contour>
      <point x="84" y="190" type="line"/>
      <point x="84" y="698" type="line"/>
      <point x="154" y="698" type="line"/>
      <point x="154" y="190" type="line"/>
    </contour>
  </outline>
</glyph>
<glyph name="percent" format="1">
  <advance width="543"/>
  <unicode hex="0025"/>
  <outline>
    <contour>
      <point x="84" y="414"/>
      <point x="112" y="386"/>
      <point x="152" y="386"/>
      <point x="180" y="414"/>
      <point x="180" y="454"/>
      <point x="152" y="482"/>
      <point x="112" y="482"/>
      <point x="84" y="454"/>
    </contour>
    <contour>
      <point x="40" y="472"/>
      <point x="94" y="526"/>
      <point x="170" y="526"/>
      <point x="224" y="472"/>
      <point x="224" y="396"/>
      <point x="170" y="342"/>
      <point x="94" y="342"/>
      <point x="40" y="396"/>
    </contour>
    <contour>
      <point x="364" y="78"/>
      <point x="392" y="50"/>
      <point x="432" y="50"/>
      <point x="460" y="78"/>
      <point x="460" y="118"/>
      <point x="432" y="146"/>
      <point x="392" y="146"/>
      <point x="364" y="118"/>
    </contour>
    <contour>
      <point x="319" y="136"/>
      <point x="374" y="190"/>
      <point x="450" y="190"/>
      <point x="504" y="136"/>
      <point x="504" y="60"/>
      <point x="450" y="6"/>
      <point x="374" y="6"/>
      <point x="319" y="60"/>
    </contour>
    <contour>
      <point x="50" y="41" type="line"/>
      <point x="456" y="524" type="line"/>
      <point x="494" y="490" type="line"/>
      <point x="88" y="8" type="line"/>
    </contour>
  </outline>
</glyph>
<glyph name="ampersand" format="1">
  <advance width="548"/>
  <unicode hex="0026"/>
  <outline>
    <contour>
      <point x="215" y="457" type="qcurve"/>
      <point x="290" y="537"/>
      <point x="290" y="590" type="qcurve" smooth="yes"/>
      <point x="290" y="611"/>
      <point x="256" y="640"/>
      <point x="238" y="640" type="qcurve" smooth="yes"/>
      <point x="219" y="640"/>
      <point x="174" y="605"/>
      <point x="174" y="584" type="qcurve" smooth="yes"/>
      <point x="174" y="522"/>
    </contour>
    <contour>
      <point x="446" y="126" type="qcurve"/>
      <point x="535" y="0" type="line"/>
      <point x="441" y="0" type="line"/>
      <point x="398" y="61" type="line"/>
      <point x="328" y="-12"/>
      <point x="231" y="-12" type="qcurve" smooth="yes"/>
      <point x="148" y="-12"/>
      <point x="31" y="110"/>
      <point x="31" y="196" type="qcurve" smooth="yes"/>
      <point x="31" y="230"/>
      <point x="73" y="306"/>
      <point x="119" y="358"/>
      <point x="161" y="400" type="qcurve"/>
      <point x="135" y="437" type="line" smooth="yes"/>
      <point x="96" y="492"/>
      <point x="96" y="586" type="qcurve" smooth="yes"/>
      <point x="96" y="642"/>
      <point x="183" y="710"/>
      <point x="238" y="710" type="qcurve" smooth="yes"/>
      <point x="292" y="710"/>
      <point x="368" y="649"/>
      <point x="368" y="592" type="qcurve" smooth="yes"/>
      <point x="368" y="511"/>
      <point x="256" y="397" type="qcurve"/>
      <point x="395" y="199" type="line"/>
      <point x="421" y="256"/>
      <point x="437" y="327" type="qcurve"/>
      <point x="514" y="310" type="line"/>
      <point x="496" y="209"/>
    </contour>
    <contour>
      <point x="202" y="343" type="line"/>
      <point x="156" y="296"/>
      <point x="109" y="229"/>
      <point x="109" y="198" type="qcurve" smooth="yes"/>
      <point x="109" y="140"/>
      <point x="180" y="58"/>
      <point x="231" y="58" type="qcurve" smooth="yes"/>
      <point x="297" y="58"/>
      <point x="352" y="128" type="qcurve"/>
    </contour>
  </outline>
</glyph>
<glyph name="parenleft" format="1">
  <advance width="240"/>
  <unicode hex="0028"/>
  <outline>
    <contour>
      <point x="199" y="644" type="line"/>
      <point x="172" y="629"/>
      <point x="122" y="456"/>
      <point x="122" y="240"/>
      <point x="172" y="69"/>
      <point x="199" y="54" type="qcurve"/>
      <point x="199" y="-16" type="line"/>
      <point x="129" y="-16"/>
      <point x="44" y="195"/>
      <point x="44" y="501"/>
      <point x="129" y="714"/>
      <point x="199" y="714" type="qcurve"/>
    </contour>
  </outline>
</glyph>
<glyph name="plus" format="1">
  <advance width="453"/>
  <unicode hex="002B"/>
  <outline>
    <contour>
      <point x="199" y="218" type="line"/>
      <point x="39" y="218" type="line"/>
      <point x="39" y="274" type="line"/>
      <point x="199" y="274" type="line"/>
      <point x="199" y="434" type="line"/>
      <point x="255" y="434" type="line"/>
      <point x="255" y="274" type="line"/>
      <point x="415" y="274" type="line"/>
      <point x="415" y="218" type="line"/>
      <point x="255" y="218" type="line"/>
      <point x="255" y="58" type="line"/>
      <point x="199" y="58" type="line"/>
    </contour>
  </outline>
</glyph>
<glyph name="comma" format="1">
  <advance width="209"/>
  <unicode hex="002C"/>
  <outline>
    <contour>
      <point x="49" y="71"/>
      <point x="81" y="103"/>
      <point x="127" y="103"/>
      <point x="160" y="71"/>
      <point x="160" y="48" type="qcurve" smooth="yes"/>
      <point x="160" y="13"/>
      <point x="141" y="-48"/>
      <point x="114" y="-86"/>
      <point x="100" y="-100" type="qcurve" smooth="yes"/>
      <point x="88" y="-112"/>
      <point x="78" y="-118" type="qcurve" smooth="yes"/>
      <point x="68" y="-124" type="line"/>
      <point x="50" y="-114" type="line"/>
      <point x="89" y="-75"/>
      <point x="104" y="-8" type="qcurve"/>
      <point x="81" y="-8"/>
      <point x="49" y="25"/>
    </contour>
  </outline>
</glyph>
<glyph name="slash" format="1">
  <advance width="386"/>
  <unicode hex="002F"/>
  <outline>
    <contour>
      <point x="352" y="698" type="line"/>
      <point x="98" y="0" type="line"/>
      <point x="35" y="0" type="line"/>
      <point x="289" y="698" type="line"/>
    </contour>
  </outline>
</glyph>
<glyph name="six" format="1">
  <advance width="574"/>
  <unicode hex="0036"/>
  <outline>
    <contour>
      <point x="110" y="305"/>
      <point x="110" y="156"/>
      <point x="208" y="47"/>
      <point x="348" y="47"/>
      <point x="446" y="156"/>
      <point x="446" y="304"/>
      <point x="348" y="412"/>
      <point x="204" y="412"/>
    </contour>
    <contour>
      <point x="130" y="403" type="qcurve"/>
      <point x="187" y="476"/>
      <point x="372" y="476"/>
      <point x="515" y="327"/>
      <point x="515" y="132"/>
      <point x="371" y="-16"/>
      <point x="179" y="-16"/>
      <point x="40" y="125"/>
      <point x="40" y="230" type="qcurve" smooth="yes"/>
      <point x="40" y="433"/>
      <point x="228" y="702"/>
      <point x="396" y="714" type="qcurve"/>
      <point x="396" y="648" type="line"/>
      <point x="189" y="618"/>
    </contour>
  </outline>
</glyph>
<glyph name="B" format="1">
  <advance width="588"/>
  <unicode hex="0042"/>
  <outline>
    <contour>
      <point x="265" y="743" type="move" name="above"/>
    </contour>
    <contour>
      <point x="285" y="0" type="move" name="below"/>
    </contour>
    <contour>
      <point x="502" y="525" type="qcurve" smooth="yes"/>
      <point x="502" y="435"/>
      <point x="420" y="385" type="qcurve"/>
      <point x="453" y="372"/>
      <point x="480" y="351" type="qcurve" smooth="yes"/>
      <point x="549" y="296"/>
      <point x="549" y="208" type="qcurve" smooth="yes"/>
      <point x="549" y="138"/>
      <point x="512" y="90" type="qcurve" smooth="yes"/>
      <point x="444" y="0"/>
      <point x="307" y="0" type="qcurve" smooth="yes"/>
      <point x="81" y="0" type="line"/>
      <point x="81" y="698" type="line"/>
      <point x="281" y="698" type="line" smooth="yes"/>
      <point x="384" y="698"/>
      <point x="502" y="596"/>
    </contour>
    <contour>
      <point x="158" y="346" type="line"/>
      <point x="158" y="63" type="line"/>
      <point x="302" y="63" type="line" smooth="yes"/>
      <point x="374" y="63"/>
      <point x="465" y="138"/>
      <point x="465" y="270"/>
      <point x="378" y="346"/>
      <point x="307" y="346" type="qcurve" smooth="yes"/>
    </contour>
    <contour>
      <point x="158" y="634" type="line"/>
      <point x="158" y="411" type="line"/>
      <point x="284" y="411" type="line" smooth="yes"/>
      <point x="343" y="411"/>
      <point x="418" y="472"/>
      <point x="418" y="569"/>
      <point x="348" y="634"/>
      <point x="282" y="634" type="qcurve" smooth="yes"/>
    </contour>
  </outline>
</glyph>
<glyph name="C" format="1">
  <advance width="586"/>
  <unicode hex="0043"/>
  <outline>
    <contour>
      <point x="330" y="743" type="move" name="above"/>
    </contour>
    <contour>
      <point x="327" y="0" type="move" name="below"/>
    </contour>
    <contour>
      <point x="559" y="147" type="line"/>
      <point x="465" y="-16"/>
      <point x="327" y="-16" type="qcurve" smooth="yes"/>
      <point x="210" y="-16"/>
      <point x="45" y="199"/>
      <point x="45" y="497"/>
      <point x="210" y="714"/>
      <point x="327" y="714" type="qcurve" smooth="yes"/>
      <point x="454" y="714"/>
      <point x="547" y="570" type="qcurve"/>
      <point x="486" y="527" type="line"/>
      <point x="415" y="644"/>
      <point x="327" y="644" type="qcurve" smooth="yes"/>
      <point x="238" y="644"/>
      <point x="123" y="468"/>
      <point x="123" y="228"/>
      <point x="237" y="54"/>
      <point x="327" y="54" type="qcurve" smooth="yes"/>
      <point x="423" y="54"/>
      <point x="493" y="183" type="qcurve"/>
    </contour>
  </outline>
</glyph>
<glyph name="G" format="1">
  <advance width="621"/>
  <unicode hex="0047"/>
  <outline>
    <contour>
      <point x="331" y="743" type="move" name="above"/>
    </contour>
    <contour>
      <point x="312" y="0" type="move" name="below"/>
    </contour>
    <contour>
      <point x="337" y="298" type="line"/>
      <point x="337" y="361" type="line"/>
      <point x="578" y="361" type="line"/>
      <point x="578" y="298" type="line" smooth="yes"/>
      <point x="578" y="133"/>
      <point x="441" y="-16"/>
      <point x="312" y="-16" type="qcurve" smooth="yes"/>
      <point x="196" y="-16"/>
      <point x="45" y="197"/>
      <point x="45" y="499"/>
      <point x="207" y="714"/>
      <point x="332" y="714" type="qcurve" smooth="yes"/>
      <point x="411" y="714"/>
      <point x="510" y="643"/>
      <point x="557" y="570" type="qcurve"/>
      <point x="496" y="527" type="line"/>
      <point x="461" y="585"/>
      <point x="389" y="644"/>
      <point x="332" y="644" type="qcurve" smooth="yes"/>
      <point x="238" y="644"/>
      <point x="123" y="469"/>
      <point x="123" y="348" type="qcurve" smooth="yes"/>
      <point x="123" y="226"/>
      <point x="224" y="54"/>
      <point x="312" y="54" type="qcurve" smooth="yes"/>
      <point x="358" y="54"/>
      <point x="419" y="71"/>
      <point x="475" y="120"/>
      <point x="502" y="220"/>
      <point x="502" y="298" type="qcurve"/>
    </contour>
  </outline>
</glyph>
<glyph name="I" format="1">
  <advance width="259"/>
  <unicode hex="0049"/>
  <outline>
    <contour>
      <point x="130" y="743" type="move" name="above"/>
    </contour>
    <contour>
      <point x="130" y="0" type="move" name="below"/>
    </contour>
    <contour>
      <point x="175" y="0" type="move" name="ogonek"/>
    </contour>
    <contour>
      <point x="168" y="631" type="line"/>
      <point x="168" y="68" type="line"/>
      <point x="205" y="68" type="line"/>
      <point x="205" y="0" type="line"/>
      <point x="54" y="0" type="line"/>
      <point x="54" y="68" type="line"/>
      <point x="91" y="68" type="line"/>
      <point x="91" y="631" type="line"/>
      <point x="54" y="631" type="line"/>
      <point x="54" y="698" type="line"/>
      <point x="205" y="698" type="line"/>
      <point x="205" y="631" type="line"/>
    </contour>
  </outline>
</glyph>
<glyph name="J" format="1">
  <advance width="501"/>
  <unicode hex="004A"/>
  <outline>
    <contour>
      <point x="389" y="743" type="move" name="above"/>
    </contour>
    <contour>
      <point x="210" y="0" type="move" name="below"/>
    </contour>
    <contour>
      <point x="77" y="161" type="line"/>
      <point x="92" y="112"/>
      <point x="161" y="55"/>
      <point x="208" y="55" type="qcurve" smooth="yes"/>
      <point x="276" y="55"/>
      <point x="349" y="132"/>
      <point x="349" y="210" type="qcurve" smooth="yes"/>
      <point x="349" y="698" type="line"/>
      <point x="426" y="698" type="line"/>
      <point x="426" y="210" type="line" smooth="yes"/>
      <point x="426" y="107"/>
      <point x="302" y="-16"/>
      <point x="210" y="-16" type="qcurve" smooth="yes"/>
      <point x="147" y="-16"/>
      <point x="39" y="65"/>
      <point x="12" y="130" type="qcurve"/>
    </contour>
  </outline>
</glyph>
<glyph name="L" format="1">
  <advance width="446"/>
  <unicode hex="004C"/>
  <outline>
    <contour>
      <point x="120" y="743" type="move" name="above"/>
    </contour>
    <contour>
      <point x="273" y="0" type="move" name="below"/>
    </contour>
    <contour>
      <point x="81" y="0" type="line"/>
      <point x="81" y="698" type="line"/>
      <point x="158" y="698" type="line"/>
      <point x="158" y="63" type="line"/>
      <point x="431" y="63" type="line"/>
      <point x="431" y="0" type="line"/>
    </contour>
  </outline>
</glyph>
<glyph name="M" format="1">
  <advance width="812"/>
  <unicode hex="004D"/>
  <outline>
    <contour>
      <point x="404" y="743" type="move" name="above"/>
    </contour>
    <contour>
      <point x="407" y="0" type="move" name="below"/>
    </contour>
    <contour>
      <point x="81" y="0" type="line"/>
      <point x="81" y="698" type="line"/>
      <point x="164" y="698" type="line"/>
      <point x="407" y="101" type="line"/>
      <point x="648" y="698" type="line"/>
      <point x="731" y="698" type="line"/>
      <point x="731" y="0" type="line"/>
      <point x="655" y="0" type="line"/>
      <point x="655" y="515" type="line"/>
      <point x="447" y="0" type="line"/>
      <point x="366" y="0" type="line"/>
      <point x="158" y="514" type="line"/>
      <point x="158" y="0" type="line"/>
    </contour>
  </outline>
</glyph>
<glyph name="N" format="1">
  <advance width="644"/>
  <unicode hex="004E"/>
  <outline>
    <contour>
      <point x="328" y="743" type="move" name="above"/>
    </contour>
    <contour>
      <point x="328" y="0" type="move" name="below"/>
    </contour>
    <contour>
      <point x="81" y="0" type="line"/>
      <point x="81" y="698" type="line"/>
      <point x="158" y="698" type="line"/>
      <point x="487" y="126" type="line"/>
      <point x="487" y="698" type="line"/>
      <point x="563" y="698" type="line"/>
      <point x="563" y="0" type="line"/>
      <point x="487" y="0" type="line"/>
      <point x="158" y="570" type="line"/>
      <point x="158" y="0" type="line"/>
    </contour>
  </outline>
</glyph>
<glyph name="V" format="1">
  <advance width="586"/>
  <unicode hex="0056"/>
  <outline>
    <contour>
      <point x="294" y="743" type="move" name="above"/>
    </contour>
    <contour>
      <point x="294" y="0" type="move" name="below"/>
    </contour>
    <contour>
      <point x="334" y="0" type="line"/>
      <point x="252" y="0" type="line"/>
      <point x="-1" y="698" type="line"/>
      <point x="81" y="698" type="line"/>
      <point x="293" y="114" type="line"/>
      <point x="506" y="698" type="line"/>
      <point x="588" y="698" type="line"/>
    </contour>
  </outline>
</glyph>
<glyph name="X" format="1">
  <advance width="507"/>
  <unicode hex="0058"/>
  <outline>
    <contour>
      <point x="254" y="743" type="move" name="above"/>
    </contour>
    <contour>
      <point x="254" y="0" type="move" name="below"/>
    </contour>
    <contour>
      <point x="297" y="357" type="line"/>
      <point x="487" y="0" type="line"/>
      <point x="401" y="0" type="line"/>
      <point x="254" y="276" type="line"/>
      <point x="108" y="0" type="line"/>
      <point x="22" y="0" type="line"/>
      <point x="211" y="357" type="line"/>
      <point x="30" y="698" type="line"/>
      <point x="116" y="698" type="line"/>
      <point x="254" y="437" type="line"/>
      <point x="393" y="698" type="line"/>
      <point x="479" y="698" type="line"/>
    </contour>
  </outline>
</glyph>
<glyph name="Z" format="1">
  <advance width="515"/>
  <unicode hex="005A"/>
  <outline>
    <contour>
      <point x="266" y="743" type="move" name="above"/>
    </contour>
    <contour>
      <point x="264" y="0" type="move" name="below"/>
    </contour>
    <contour>
      <point x="39" y="635" type="line"/>
      <point x="39" y="698" type="line"/>
      <point x="475" y="698" type="line"/>
      <point x="475" y="622" type="line"/>
      <point x="126" y="63" type="line"/>
      <point x="475" y="63" type="line"/>
      <point x="475" y="0" type="line"/>
      <point x="39" y="0" type="line"/>
      <point x="39" y="65" type="line"/>
      <point x="394" y="635" type="line"/>
    </contour>
  </outline>
</glyph>
<glyph name="bracketleft" format="1">
  <advance width="265"/>
  <unicode hex="005B"/>
  <outline>
    <contour>
      <point x="69" y="738" type="line"/>
      <point x="245" y="738" type="line"/>
      <point x="245" y="698" type="line"/>
      <point x="145" y="698" type="line"/>
      <point x="145" y="0" type="line"/>
      <point x="245" y="0" type="line"/>
      <point x="245" y="-40" type="line"/>
      <point x="69" y="-40" type="line"/>
    </contour>
  </outline>
</glyph>
<glyph name="asciicircum" format="1">
  <advance width="489"/>
  <unicode hex="005E"/>
  <outline>
    <contour>
      <point x="234" y="487" type="line"/>
      <point x="422" y="237" type="line"/>
      <point x="364" y="195" type="line"/>
      <point x="233" y="370" type="line"/>
      <point x="102" y="195" type="line"/>
      <point x="46" y="237" type="line"/>
    </contour>
  </outline>
</glyph>
<glyph name="grave" format="1">
  <advance width="397"/>
  <unicode hex="0060"/>
  <outline>
    <contour>
      <point x="296" y="581" type="line"/>
      <point x="60" y="700" type="line"/>
      <point x="95" y="760" type="line"/>
      <point x="316" y="615" type="line"/>
    </contour>
  </outline>
</glyph>
<glyph name="b" format="1">
  <advance width="574"/>
  <unicode hex="0062"/>
  <outline>
    <contour>
      <point x="105" y="783" type="move" name="above"/>
    </contour>
    <contour>
      <point x="300" y="0" type="move" name="below"/>
    </contour>
    <contour>
      <point x="470" y="315"/>
      <point x="371" y="432"/>
      <point x="233" y="432"/>
      <point x="134" y="315"/>
      <point x="134" y="165"/>
      <point x="233" y="47"/>
      <point x="371" y="47"/>
      <point x="470" y="165"/>
    </contour>
    <contour>
      <point x="134" y="404" type="line"/>
      <point x="198" y="496"/>
      <point x="397" y="496"/>
      <point x="540" y="342"/>
      <point x="540" y="137"/>
      <point x="395" y="-16"/>
      <point x="195" y="-16"/>
      <point x="134" y="73" type="qcurve"/>
      <point x="134" y="0" type="line"/>
      <point x="65" y="0" type="line"/>
      <point x="65" y="743" type="line"/>
      <point x="134" y="743" type="line"/>
    </contour>
  </outline>
</glyph>
<glyph name="c" format="1">
  <advance width="488"/>
  <unicode hex="0063"/>
  <outline>
    <contour>
      <point x="274" y="581" type="move" name="above"/>
    </contour>
    <contour>
      <point x="273" y="0" type="move" name="below"/>
    </contour>
    <contour>
      <point x="465" y="76" type="line"/>
      <point x="428" y="30"/>
      <point x="340" y="-16"/>
      <point x="274" y="-16" type="qcurve" smooth="yes"/>
      <point x="183" y="-16"/>
      <point x="35" y="137"/>
      <point x="35" y="343"/>
      <point x="181" y="496"/>
      <point x="272" y="496" type="qcurve" smooth="yes"/>
      <point x="322" y="496"/>
      <point x="419" y="443"/>
      <point x="454" y="399" type="qcurve"/>
      <point x="402" y="359" type="line"/>
      <point x="350" y="432"/>
      <point x="272" y="432" type="qcurve" smooth="yes"/>
      <point x="205" y="432"/>
      <point x="104" y="319"/>
      <point x="104" y="161"/>
      <point x="205" y="47"/>
      <point x="272" y="47" type="qcurve" smooth="yes"/>
      <point x="325" y="47"/>
      <point x="384" y="79"/>
      <point x="411" y="114" type="qcurve"/>
    </contour>
  </outline>
</glyph>
<glyph name="h" format="1">
  <advance width="547"/>
  <unicode hex="0068"/>
  <outline>
    <contour>
      <point x="114" y="783" type="move" name="above"/>
    </contour>
    <contour>
      <point x="278" y="0" type="move" name="below"/>
    </contour>
    <contour>
      <point x="134" y="421" type="line"/>
      <point x="199" y="496"/>
      <point x="276" y="496" type="qcurve" smooth="yes"/>
      <point x="369" y="496"/>
      <point x="488" y="392"/>
      <point x="488" y="303" type="qcurve" smooth="yes"/>
      <point x="488" y="0" type="line"/>
      <point x="419" y="0" type="line"/>
      <point x="419" y="303" type="line" smooth="yes"/>
      <point x="419" y="360"/>
      <point x="336" y="432"/>
      <point x="210" y="432"/>
      <point x="134" y="319"/>
      <point x="134" y="240" type="qcurve" smooth="yes"/>
      <point x="134" y="0" type="line"/>
      <point x="65" y="0" type="line"/>
      <point x="65" y="743" type="line"/>
      <point x="134" y="743" type="line"/>
    </contour>
  </outline>
</glyph>
<glyph name="k" format="1">
  <advance width="446"/>
  <unicode hex="006B"/>
  <outline>
    <contour>
      <point x="106" y="783" type="move" name="above"/>
    </contour>
    <contour>
      <point x="250" y="0" type="move" name="below"/>
    </contour>
    <contour>
      <point x="65" y="0" type="line"/>
      <point x="65" y="743" type="line"/>
      <point x="134" y="743" type="line"/>
      <point x="134" y="289" type="line"/>
      <point x="324" y="479" type="line"/>
      <point x="424" y="479" type="line"/>
      <point x="240" y="295" type="line"/>
      <point x="438" y="0" type="line"/>
      <point x="353" y="0" type="line"/>
      <point x="189" y="245" type="line"/>
      <point x="134" y="190" type="line"/>
      <point x="134" y="0" type="line"/>
    </contour>
  </outline>
</glyph>
<glyph name="l" format="1">
  <advance width="208"/>
  <unicode hex="006C"/>
  <outline>
    <contour>
      <point x="105" y="783" type="move" name="above"/>
    </contour>
    <contour>
      <point x="105" y="0" type="move" name="below"/>
    </contour>
    <contour>
      <point x="70" y="0" type="line"/>
      <point x="70" y="743" type="line"/>
      <point x="139" y="743" type="line"/>
      <point x="139" y="0" type="line"/>
    </contour>
  </outline>
</glyph>
<glyph name="m" format="1">
  <advance width="788"/>
  <unicode hex="006D"/>
  <outline>
    <contour>
      <point x="398" y="581" type="move" name="above"/>
    </contour>
    <contour>
      <point x="395" y="0" type="move" name="below"/>
    </contour>
    <contour>
      <point x="410" y="398" type="qcurve"/>
      <point x="460" y="496"/>
      <point x="623" y="496"/>
      <point x="728" y="386"/>
      <point x="728" y="303" type="qcurve" smooth="yes"/>
      <point x="728" y="0" type="line"/>
      <point x="659" y="0" type="line"/>
      <point x="659" y="303" type="line" smooth="yes"/>
      <point x="659" y="357"/>
      <point x="595" y="432"/>
      <point x="489" y="432"/>
      <point x="431" y="315"/>
      <point x="431" y="240" type="qcurve" smooth="yes"/>
      <point x="431" y="0" type="line"/>
      <point x="362" y="0" type="line"/>
      <point x="362" y="303" type="line" smooth="yes"/>
      <point x="362" y="357"/>
      <point x="298" y="432"/>
      <point x="192" y="432"/>
      <point x="134" y="315"/>
      <point x="134" y="240" type="qcurve" smooth="yes"/>
      <point x="134" y="0" type="line"/>
      <point x="65" y="0" type="line"/>
      <point x="65" y="479" type="line"/>
      <point x="134" y="479" type="line"/>
      <point x="134" y="433" type="line"/>
      <point x="180" y="496"/>
      <point x="326" y="496"/>
      <point x="378" y="441" type="qcurve" smooth="yes"/>
      <point x="398" y="421"/>
    </contour>
  </outline>
</glyph>
<glyph name="o" format="1">
  <advance width="544"/>
  <unicode hex="006F"/>
  <outline>
    <contour>
      <point x="272" y="581" type="move" name="above"/>
    </contour>
    <contour>
      <point x="275" y="0" type="move" name="below"/>
    </contour>
    <contour>
      <point x="276" y="0" type="move" name="ogonek"/>
    </contour>
    <contour>
      <point x="104" y="161"/>
      <point x="205" y="47"/>
      <point x="339" y="47"/>
      <point x="440" y="161"/>
      <point x="440" y="319"/>
      <point x="339" y="432"/>
      <point x="205" y="432"/>
      <point x="104" y="319"/>
    </contour>
    <contour>
      <point x="35" y="343"/>
      <point x="181" y="496"/>
      <point x="363" y="496"/>
      <point x="510" y="343"/>
      <point x="510" y="240" type="qcurve" smooth="yes"/>
      <point x="510" y="136"/>
      <point x="365" y="-16"/>
      <point x="183" y="-16"/>
      <point x="35" y="137"/>
    </contour>
  </outline>
</glyph>
<glyph name="bar" format="1">
  <advance width="177"/>
  <unicode hex="007C"/>
  <outline>
    <contour>
      <point x="68" y="-70" type="line"/>
      <point x="68" y="768" type="line"/>
      <point x="110" y="768" type="line"/>
      <point x="110" y="-70" type="line"/>
    </contour>
  </outline>
</glyph>
<glyph name="copyright" format="1">
  <advance width="719"/>
  <unicode hex="00A9"/>
  <outline>
    <contour>
      <point x="499" y="182" type="line"/>
      <point x="448" y="115"/>
      <point x="365" y="115" type="qcurve" smooth="yes"/>
      <point x="301" y="115"/>
      <point x="201" y="220"/>
      <point x="201" y="290" type="qcurve" smooth="yes"/>
      <point x="201" y="362"/>
      <point x="302" y="465"/>
      <point x="364" y="465" type="qcurve" smooth="yes"/>
      <point x="440" y="465"/>
      <point x="492" y="395" type="qcurve"/>
      <point x="449" y="362" type="line"/>
      <point x="445" y="366" type="line"/>
      <point x="411" y="413"/>
      <point x="364" y="413" type="qcurve" smooth="yes"/>
      <point x="321" y="413"/>
      <point x="257" y="339"/>
      <point x="257" y="290" type="qcurve" smooth="yes"/>
      <point x="257" y="239"/>
      <point x="322" y="166"/>
      <point x="364" y="166" type="qcurve" smooth="yes"/>
      <point x="401" y="166"/>
      <point x="437" y="188"/>
      <point x="455" y="213" type="qcurve"/>
    </contour>
    <contour>
      <point x="46" y="293" type="qcurve" smooth="yes"/>
      <point x="46" y="424"/>
      <point x="230" y="607"/>
      <point x="359" y="607" type="qcurve" smooth="yes"/>
      <point x="490" y="607"/>
      <point x="674" y="422"/>
      <point x="674" y="293" type="qcurve" smooth="yes"/>
      <point x="674" y="162"/>
      <point x="488" y="-22"/>
      <point x="359" y="-22" type="qcurve" smooth="yes"/>
      <point x="229" y="-22"/>
      <point x="46" y="164"/>
    </contour>
    <contour>
      <point x="93" y="293" type="qcurve" smooth="yes"/>
      <point x="93" y="181"/>
      <point x="249" y="27"/>
      <point x="359" y="27" type="qcurve" smooth="yes"/>
      <point x="471" y="27"/>
      <point x="626" y="183"/>
      <point x="626" y="293" type="qcurve" smooth="yes"/>
      <point x="626" y="405"/>
      <point x="469" y="559"/>
      <point x="359" y="559" type="qcurve" smooth="yes"/>
      <point x="247" y="559"/>
      <point x="93" y="403"/>
    </contour>
  </outline>
</glyph>
<glyph name="uni00AD" format="1">
  <advance width="340"/>
  <unicode hex="00AD"/>
  <outline>
    <contour>
      <point x="57" y="274" type="line"/>
      <point x="284" y="274" type="line"/>
      <point x="284" y="218" type="line"/>
      <point x="57" y="218" type="line"/>
    </contour>
  </outline>
</glyph>
<glyph name="plusminus" format="1">
  <advance width="502"/>
  <unicode hex="00B1"/>
  <outline>
    <contour>
      <point x="63" y="23" type="line"/>
      <point x="63" y="79" type="line"/>
      <point x="439" y="79" type="line"/>
      <point x="439" y="23" type="line"/>
    </contour>
    <contour>
      <point x="223" y="285" type="line"/>
      <point x="63" y="285" type="line"/>
      <point x="63" y="341" type="line"/>
      <point x="223" y="341" type="line"/>
      <point x="223" y="479" type="line"/>
      <point x="280" y="479" type="line"/>
      <point x="280" y="341" type="line"/>
      <point x="439" y="341" type="line"/>
      <point x="439" y="285" type="line"/>
      <point x="280" y="285" type="line"/>
      <point x="280" y="147" type="line"/>
      <point x="223" y="147" type="line"/>
    </contour>
  </outline>
</glyph>
<glyph name="acute" format="1">
  <advance width="397"/>
  <unicode hex="00B4"/>
  <outline>
    <contour>
      <point x="59" y="615" type="line"/>
      <point x="281" y="760" type="line"/>
      <point x="315" y="700" type="line"/>
      <point x="80" y="581" type="line"/>
    </contour>
  </outline>
</glyph>
<glyph name="cedilla" format="1">
  <advance width="353"/>
  <unicode hex="00B8"/>
  <outline>
    <contour>
      <point x="141" y="0" type="line"/>
      <point x="194" y="0" type="line"/>
      <point x="160" y="-70" type="line"/>
      <point x="215" y="-70"/>
      <point x="269" y="-106"/>
      <point x="269" y="-128" type="qcurve" smooth="yes"/>
      <point x="269" y="-205"/>
      <point x="59" y="-205" type="qcurve"/>
      <point x="59" y="-177" type="line"/>
      <point x="110" y="-177"/>
      <point x="203" y="-154"/>
      <point x="203" y="-134" type="qcurve" smooth="yes"/>
      <point x="203" y="-124"/>
      <point x="188" y="-112"/>
      <point x="139" y="-105"/>
      <point x="92" y="-105" type="qcurve"/>
    </contour>
  </outline>
</glyph>
<glyph name="ordmasculine" format="1">
  <advance width="417"/>
  <unicode hex="00BA"/>
  <outline>
    <contour>
      <point x="150" y="396"/>
      <point x="61" y="494"/>
      <point x="61" y="616"/>
      <point x="150" y="713"/>
      <point x="268" y="713"/>
      <point x="356" y="616"/>
      <point x="356" y="555" type="qcurve" smooth="yes"/>
      <point x="356" y="493"/>
      <point x="268" y="396"/>
    </contour>
    <contour>
      <point x="168" y="665"/>
      <point x="113" y="597"/>
      <point x="113" y="511"/>
      <point x="170" y="444"/>
      <point x="248" y="444"/>
      <point x="304" y="513"/>
      <point x="304" y="599"/>
      <point x="246" y="665"/>
    </contour>
    <contour>
      <point x="356" y="292" type="line"/>
      <point x="61" y="292" type="line"/>
      <point x="61" y="344" type="line"/>
      <point x="356" y="344" type="line"/>
    </contour>
  </outline>
</glyph>
<glyph name="questiondown" format="1">
  <advance width="472"/>
  <unicode hex="00BF"/>
  <outline>
    <contour>
      <point x="279" y="614"/>
      <point x="312" y="581"/>
      <point x="312" y="536"/>
      <point x="279" y="503"/>
      <point x="234" y="503"/>
      <point x="201" y="536"/>
      <point x="201" y="580"/>
      <point x="235" y="614"/>
    </contour>
    <contour>
      <point x="185" y="-44"/>
      <point x="296" y="-44"/>
      <point x="363" y="10"/>
      <point x="377" y="54" type="qcurve"/>
      <point x="441" y="34" type="line"/>
      <point x="419" y="-25"/>
      <point x="315" y="-108"/>
      <point x="161" y="-108"/>
      <point x="39" y="6"/>
      <point x="39" y="90" type="qcurve" smooth="yes"/>
      <point x="39" y="136"/>
      <point x="66" y="205"/>
      <point x="106" y="242"/>
      <point x="154" y="281"/>
      <point x="194" y="314"/>
      <point x="221" y="375"/>
      <point x="221" y="416" type="qcurve"/>
      <point x="291" y="416" type="line"/>
      <point x="291" y="365"/>
      <point x="264" y="290"/>
      <point x="224" y="252"/>
      <point x="176" y="215"/>
      <point x="156" y="200" type="qcurve" smooth="yes"/>
      <point x="109" y="164.75"/>
      <point x="109" y="30"/>
    </contour>
  </outline>
</glyph>
<glyph name="ae" format="1">
  <advance width="887"/>
  <unicode hex="00E6"/>
  <outline>
    <contour>
      <point x="419" y="581" type="move" name="above"/>
    </contour>
    <contour>
      <point x="205" y="297"/>
      <point x="303" y="297"/>
      <point x="386" y="276" type="qcurve"/>
      <point x="386" y="277" type="line"/>
      <point x="380" y="333"/>
      <point x="348" y="376" type="qcurve" smooth="yes"/>
      <point x="308" y="431"/>
      <point x="243" y="431" type="qcurve" smooth="yes"/>
      <point x="194" y="431"/>
      <point x="142" y="400"/>
      <point x="114" y="365" type="qcurve"/>
      <point x="59" y="398" type="line"/>
      <point x="98" y="447"/>
      <point x="176" y="495"/>
      <point x="243" y="495" type="qcurve" smooth="yes"/>
      <point x="244" y="495"/>
      <point x="246" y="495" type="qcurve" smooth="yes"/>
      <point x="333" y="495"/>
      <point x="384" y="430" type="qcurve" smooth="yes"/>
      <point x="405" y="403"/>
      <point x="418" y="369" type="qcurve"/>
      <point x="434" y="395"/>
      <point x="456" y="419" type="qcurve" smooth="yes"/>
      <point x="528" y="496"/>
      <point x="715" y="496"/>
      <point x="859" y="342"/>
      <point x="859" y="240" type="qcurve"/>
      <point x="453" y="240" type="line"/>
      <point x="453" y="165"/>
      <point x="552" y="47"/>
      <point x="692" y="47"/>
      <point x="759" y="85"/>
      <point x="788" y="134" type="qcurve"/>
      <point x="844" y="97" type="line"/>
      <point x="806" y="38"/>
      <point x="708" y="-16"/>
      <point x="528" y="-16"/>
      <point x="456" y="60" type="qcurve"/>
      <point x="348" y="-16"/>
      <point x="213" y="-16" type="qcurve" smooth="yes"/>
      <point x="135" y="-16"/>
      <point x="28" y="63"/>
      <point x="28" y="189"/>
      <point x="104" y="267"/>
    </contour>
    <contour>
      <point x="780" y="303" type="line"/>
      <point x="766" y="345"/>
      <point x="736" y="377" type="qcurve" smooth="yes"/>
      <point x="684" y="432"/>
      <point x="552" y="432"/>
      <point x="502" y="374" type="qcurve" smooth="yes"/>
      <point x="474" y="341"/>
      <point x="463" y="303" type="qcurve"/>
    </contour>
    <contour>
      <point x="422" y="105" type="qcurve"/>
      <point x="389" y="159"/>
      <point x="384" y="224" type="qcurve"/>
      <point x="329" y="237"/>
      <point x="225" y="237"/>
      <point x="158" y="220"/>
      <point x="104" y="170"/>
      <point x="104" y="88"/>
      <point x="168" y="47"/>
      <point x="277" y="47"/>
      <point x="387" y="82"/>
    </contour>
  </outline>
</glyph>
<glyph name="divide" format="1">
  <advance width="457"/>
  <unicode hex="00F7"/>
  <outline>
    <contour>
      <point x="170" y="101"/>
      <point x="202" y="133"/>
      <point x="248" y="133"/>
      <point x="282" y="101"/>
      <point x="282" y="55"/>
      <point x="248" y="22"/>
      <point x="202" y="22"/>
      <point x="170" y="55"/>
    </contour>
    <contour>
      <point x="170" y="421"/>
      <point x="202" y="453"/>
      <point x="248" y="453"/>
      <point x="282" y="421"/>
      <point x="282" y="375"/>
      <point x="248" y="342"/>
      <point x="202" y="342"/>
      <point x="170" y="375"/>
    </contour>
    <contour>
      <point x="54" y="274" type="line"/>
      <point x="402" y="274" type="line"/>
      <point x="402" y="218" type="line"/>
      <point x="54" y="218" type="line"/>
    </contour>
  </outline>
</glyph>
<glyph name="hbar" format="1">
  <advance width="547"/>
  <unicode hex="0127"/>
  <outline>
    <contour>
      <point x="19" y="581" type="line"/>
      <point x="19" y="645" type="line"/>
      <point x="65" y="645" type="line"/>
      <point x="65" y="743" type="line"/>
      <point x="134" y="743" type="line"/>
      <point x="134" y="645" type="line"/>
      <point x="287" y="645" type="line"/>
      <point x="287" y="581" type="line"/>
      <point x="134" y="581" type="line"/>
      <point x="134" y="421" type="line"/>
      <point x="199" y="496"/>
      <point x="276" y="496" type="qcurve" smooth="yes"/>
      <point x="369" y="496"/>
      <point x="428.5" y="444" type="qcurve" smooth="yes"/>
      <point x="488" y="392"/>
      <point x="488" y="303" type="qcurve" smooth="yes"/>
      <point x="488" y="0" type="line"/>
      <point x="419" y="0" type="line"/>
      <point x="419" y="303" type="line" smooth="yes"/>
      <point x="419" y="360"/>
      <point x="377.5" y="396" type="qcurve" smooth="yes"/>
      <point x="336" y="432"/>
      <point x="273" y="432" type="qcurve" smooth="yes"/>
      <point x="210" y="432"/>
      <point x="172" y="375.5" type="qcurve" smooth="yes"/>
      <point x="134" y="319"/>
      <point x="134" y="240" type="qcurve" smooth="yes"/>
      <point x="134" y="0" type="line"/>
      <point x="65" y="0" type="line"/>
      <point x="65" y="581" type="line"/>
    </contour>
  </outline>
</glyph>
<glyph name="eng" format="1">
  <advance width="547"/>
  <unicode hex="014B"/>
  <outline>
    <contour>
      <point x="488" y="-22" type="line" smooth="yes"/>
      <point x="488" y="-85"/>
      <point x="399" y="-174"/>
      <point x="337" y="-174" type="qcurve" smooth="yes"/>
      <point x="255" y="-174" type="line"/>
      <point x="255" y="-118" type="line"/>
      <point x="337" y="-118" type="line" smooth="yes"/>
      <point x="371" y="-118"/>
      <point x="419" y="-59"/>
      <point x="419" y="-22" type="qcurve" smooth="yes"/>
      <point x="419" y="303" type="line" smooth="yes"/>
      <point x="419" y="360"/>
      <point x="336" y="432"/>
      <point x="210" y="432"/>
      <point x="134" y="319"/>
      <point x="134" y="240" type="qcurve" smooth="yes"/>
      <point x="134" y="0" type="line"/>
      <point x="65" y="0" type="line"/>
      <point x="65" y="479" type="line"/>
      <point x="134" y="479" type="line"/>
      <point x="134" y="421" type="line"/>
      <point x="199" y="496"/>
      <point x="276" y="496" type="qcurve" smooth="yes"/>
      <point x="369" y="496"/>
      <point x="488" y="392"/>
      <point x="488" y="303" type="qcurve" smooth="yes"/>
    </contour>
  </outline>
</glyph>
<glyph name="OE" format="1">
  <advance width="849"/>
  <unicode hex="0152"/>
  <outline>
    <contour>
      <point x="477" y="743" type="move" name="above"/>
    </contour>
    <contour>
      <point x="810" y="0" type="line"/>
      <point x="427" y="0" type="line"/>
      <point x="385" y="-16"/>
      <point x="343" y="-16" type="qcurve" smooth="yes"/>
      <point x="261" y="-16"/>
      <point x="120" y="92"/>
      <point x="43" y="259"/>
      <point x="43" y="437"/>
      <point x="120" y="605"/>
      <point x="261" y="714"/>
      <point x="343" y="714" type="qcurve" smooth="yes"/>
      <point x="383" y="714"/>
      <point x="425" y="698" type="qcurve"/>
      <point x="807" y="698" type="line"/>
      <point x="807" y="634" type="line"/>
      <point x="493" y="634" type="line"/>
      <point x="493" y="411" type="line"/>
      <point x="738" y="411" type="line"/>
      <point x="738" y="348" type="line"/>
      <point x="493" y="348" type="line"/>
      <point x="493" y="63" type="line"/>
      <point x="810" y="63" type="line"/>
    </contour>
    <contour>
      <point x="416" y="54" type="line"/>
      <point x="416" y="644" type="line"/>
      <point x="343" y="644" type="line" smooth="yes"/>
      <point x="279" y="644"/>
      <point x="177" y="553"/>
      <point x="124" y="419"/>
      <point x="124" y="278"/>
      <point x="177" y="144"/>
      <point x="279" y="54"/>
      <point x="343" y="54" type="qcurve" smooth="yes"/>
    </contour>
  </outline>
</glyph>
<glyph name="Tbar" format="1">
  <advance width="514"/>
  <unicode hex="0166"/>
  <outline>
    <contour>
      <point x="145" y="434" type="line"/>
      <point x="145" y="479" type="line"/>
      <point x="219" y="479" type="line"/>
      <point x="219" y="635" type="line"/>
      <point x="19" y="635" type="line"/>
      <point x="19" y="698" type="line"/>
      <point x="495" y="698" type="line"/>
      <point x="495" y="635" type="line"/>
      <point x="295" y="635" type="line"/>
      <point x="295" y="479" type="line"/>
      <point x="369" y="479" type="line"/>
      <point x="369" y="434" type="line"/>
      <point x="295" y="434" type="line"/>
      <point x="295" y="0" type="line"/>
      <point x="219" y="0" type="line"/>
      <point x="219" y="434" type="line"/>
    </contour>
  </outline>
</glyph>
<glyph name="uogonek" format="1">
  <advance width="547"/>
  <unicode hex="0173"/>
  <outline>
    <contour>
      <point x="270" y="581" type="move" name="above"/>
    </contour>
    <contour>
      <point x="414" y="-84" type="qcurve" smooth="yes"/>
      <point x="414" y="-154"/>
      <point x="520" y="-154" type="qcurve" smooth="yes"/>
      <point x="547" y="-154"/>
      <point x="575" y="-147" type="qcurve"/>
      <point x="582" y="-174" type="line"/>
      <point x="522" y="-190"/>
      <point x="476" y="-190" type="qcurve" smooth="yes"/>
      <point x="347" y="-190"/>
      <point x="347" y="-93" type="qcurve" smooth="yes"/>
      <point x="347" y="-23.7786"/>
      <point x="413" y="6.33166" type="qcurve"/>
      <point x="413" y="58" type="line"/>
      <point x="348" y="-17"/>
      <point x="271" y="-17" type="qcurve" smooth="yes"/>
      <point x="178" y="-17"/>
      <point x="118.5" y="35" type="qcurve" smooth="yes"/>
      <point x="59" y="87"/>
      <point x="59" y="176" type="qcurve" smooth="yes"/>
      <point x="59" y="479" type="line"/>
      <point x="128" y="479" type="line"/>
      <point x="128" y="176" type="line" smooth="yes"/>
      <point x="128" y="119"/>
      <point x="169.5" y="83" type="qcurve" smooth="yes"/>
      <point x="211" y="47"/>
      <point x="274" y="47" type="qcurve" smooth="yes"/>
      <point x="337" y="47"/>
      <point x="375" y="103.5" type="qcurve" smooth="yes"/>
      <point x="413" y="160"/>
      <point x="413" y="239" type="qcurve" smooth="yes"/>
      <point x="413" y="479" type="line"/>
      <point x="482" y="479" type="line"/>
      <point x="482" y="25" type="line"/>
      <point x="482" y="0" type="line"/>
      <point x="440" y="-13"/>
      <point x="427" y="-30" type="qcurve" smooth="yes"/>
      <point x="414" y="-47"/>
    </contour>
  </outline>
</glyph>
<glyph name="uni0180" format="1">
  <advance width="574"/>
  <unicode hex="0180"/>
  <outline>
    <contour>
      <point x="34" y="581" type="line"/>
      <point x="34" y="630" type="line"/>
      <point x="65" y="630" type="line"/>
      <point x="65" y="743" type="line"/>
      <point x="134" y="743" type="line"/>
      <point x="134" y="630" type="line"/>
      <point x="312" y="630" type="line"/>
      <point x="312" y="581" type="line"/>
      <point x="134" y="581" type="line"/>
      <point x="134" y="404" type="line"/>
      <point x="198" y="496"/>
      <point x="297.5" y="496" type="qcurve" smooth="yes"/>
      <point x="397" y="496"/>
      <point x="468.5" y="419" type="qcurve" smooth="yes"/>
      <point x="540" y="342"/>
      <point x="540" y="239.5" type="qcurve" smooth="yes"/>
      <point x="540" y="137"/>
      <point x="467.5" y="60.5" type="qcurve" smooth="yes"/>
      <point x="395" y="-16"/>
      <point x="295" y="-16" type="qcurve" smooth="yes"/>
      <point x="195" y="-16"/>
      <point x="134" y="73" type="qcurve"/>
      <point x="134" y="0" type="line"/>
      <point x="65" y="0" type="line"/>
      <point x="65" y="581" type="line"/>
    </contour>
    <contour>
      <point x="470" y="240" type="qcurve" smooth="yes"/>
      <point x="470" y="315"/>
      <point x="420.5" y="373.5" type="qcurve" smooth="yes"/>
      <point x="371" y="432"/>
      <point x="302" y="432" type="qcurve" smooth="yes"/>
      <point x="233" y="432"/>
      <point x="183.5" y="373.5" type="qcurve" smooth="yes"/>
      <point x="134" y="315"/>
      <point x="134" y="240" type="qcurve" smooth="yes"/>
      <point x="134" y="165"/>
      <point x="183.5" y="106" type="qcurve" smooth="yes"/>
      <point x="233" y="47"/>
      <point x="302" y="47" type="qcurve" smooth="yes"/>
      <point x="371" y="47"/>
      <point x="420.5" y="106" type="qcurve" smooth="yes"/>
      <point x="470" y="165"/>
    </contour>
  </outline>
</glyph>
<glyph name="uni0186" format="1">
  <advance width="585"/>
  <unicode hex="0186"/>
  <outline>
    <contour>
      <point x="254" y="743" type="move" name="above"/>
    </contour>
    <contour>
      <point x="27" y="550" type="line"/>
      <point x="122" y="714"/>
      <point x="259" y="714" type="qcurve" smooth="yes"/>
      <point x="376" y="714"/>
      <point x="541" y="498"/>
      <point x="541" y="200"/>
      <point x="376" y="-16"/>
      <point x="259" y="-16" type="qcurve" smooth="yes"/>
      <point x="131" y="-16"/>
      <point x="39" y="127" type="qcurve"/>
      <point x="99" y="170" type="line"/>
      <point x="170" y="53"/>
      <point x="348" y="53"/>
      <point x="463" y="229"/>
      <point x="463" y="469"/>
      <point x="349" y="643"/>
      <point x="259" y="643" type="qcurve" smooth="yes"/>
      <point x="163" y="643"/>
      <point x="93" y="514" type="qcurve"/>
    </contour>
  </outline>
</glyph>
<glyph name="uni0187" format="1">
  <advance width="586"/>
  <unicode hex="0187"/>
  <outline>
    <contour>
      <point x="635" y="709" type="line"/>
      <point x="598" y="709"/>
      <point x="573" y="685" type="qcurve" smooth="yes"/>
      <point x="547" y="660"/>
      <point x="547" y="627" type="qcurve" smooth="yes"/>
      <point x="547" y="570" type="line"/>
      <point x="486" y="527" type="line"/>
      <point x="415" y="644"/>
      <point x="327" y="644" type="qcurve" smooth="yes"/>
      <point x="238" y="644"/>
      <point x="180.5" y="556" type="qcurve" smooth="yes"/>
      <point x="123" y="468"/>
      <point x="123" y="348" type="qcurve" smooth="yes"/>
      <point x="123" y="228"/>
      <point x="180" y="141" type="qcurve" smooth="yes"/>
      <point x="237" y="54"/>
      <point x="327" y="54" type="qcurve" smooth="yes"/>
      <point x="423" y="54"/>
      <point x="493" y="183" type="qcurve"/>
      <point x="559" y="147" type="line"/>
      <point x="465" y="-16"/>
      <point x="327" y="-16" type="qcurve" smooth="yes"/>
      <point x="210" y="-16"/>
      <point x="127.5" y="91.5" type="qcurve" smooth="yes"/>
      <point x="45" y="199"/>
      <point x="45" y="348" type="qcurve" smooth="yes"/>
      <point x="45" y="497"/>
      <point x="127.5" y="605.5" type="qcurve" smooth="yes"/>
      <point x="210" y="714"/>
      <point x="327" y="714" type="qcurve" smooth="yes"/>
      <point x="413.479" y="714"/>
      <point x="484.193" y="647.231" type="qcurve"/>
      <point x="490.245" y="697.245"/>
      <point x="527" y="734" type="qcurve" smooth="yes"/>
      <point x="571" y="778"/>
      <point x="635" y="778" type="qcurve"/>
    </contour>
  </outline>
</glyph>
<glyph name="uni018E" format="1">
  <advance width="515"/>
  <unicode hex="018E"/>
  <outline>
    <contour>
      <point x="223" y="743" type="move" name="above"/>
    </contour>
    <contour>
      <point x="434" y="0" type="line"/>
      <point x="40" y="0" type="line"/>
      <point x="40" y="63" type="line"/>
      <point x="358" y="63" type="line"/>
      <point x="358" y="348" type="line"/>
      <point x="113" y="348" type="line"/>
      <point x="113" y="411" type="line"/>
      <point x="358" y="411" type="line"/>
      <point x="358" y="634" type="line"/>
      <point x="43" y="634" type="line"/>
      <point x="43" y="698" type="line"/>
      <point x="434" y="698" type="line"/>
    </contour>
  </outline>
</glyph>
<glyph name="uni0196" format="1">
  <advance width="270"/>
  <unicode hex="0196"/>
  <outline>
    <contour>
      <point x="116" y="743" type="move" name="above"/>
    </contour>
    <contour>
      <point x="242" y="0" type="line"/>
      <point x="174" y="0"/>
      <point x="77" y="78"/>
      <point x="77" y="152" type="qcurve" smooth="yes"/>
      <point x="77" y="698" type="line"/>
      <point x="154" y="698" type="line"/>
      <point x="154" y="152" type="line" smooth="yes"/>
      <point x="154" y="70"/>
      <point x="242" y="70" type="qcurve"/>
    </contour>
  </outline>
</glyph>
<glyph name="uni0198" format="1">
  <advance width="662"/>
  <unicode hex="0198"/>
  <outline>
    <contour>
      <point x="537" y="517" type="line"/>
      <point x="577" y="549"/>
      <point x="577" y="603"/>
      <point x="539" y="639"/>
      <point x="486" y="639"/>
      <point x="443" y="590" type="qcurve"/>
      <point x="272" y="388" type="line"/>
      <point x="544" y="0" type="line"/>
      <point x="451" y="0" type="line"/>
      <point x="221" y="327" type="line"/>
      <point x="158" y="251" type="line"/>
      <point x="158" y="0" type="line"/>
      <point x="81" y="0" type="line"/>
      <point x="81" y="698" type="line"/>
      <point x="158" y="698" type="line"/>
      <point x="158" y="369" type="line"/>
      <point x="378" y="632" type="line" smooth="yes"/>
      <point x="439" y="705"/>
      <point x="562" y="705"/>
      <point x="646" y="637"/>
      <point x="646" y="582" type="qcurve" smooth="yes"/>
      <point x="646" y="545"/>
      <point x="616" y="497"/>
      <point x="584" y="474" type="qcurve"/>
    </contour>
  </outline>
</glyph>
<glyph name="uni019B" format="1">
  <advance width="468"/>
  <unicode hex="019B"/>
  <outline>
    <contour>
      <point x="234" y="389" type="line"/>
      <point x="78" y="0" type="line"/>
      <point x="2" y="0" type="line"/>
      <point x="197" y="480" type="line"/>
      <point x="169" y="550" type="line"/>
      <point x="80" y="508" type="line"/>
      <point x="53" y="565" type="line"/>
      <point x="145" y="608" type="line"/>
      <point x="110" y="698" type="line"/>
      <point x="183" y="698" type="line"/>
      <point x="208" y="637" type="line"/>
      <point x="289" y="675" type="line"/>
      <point x="315" y="617" type="line"/>
      <point x="231" y="579" type="line"/>
      <point x="467" y="0" type="line"/>
      <point x="391" y="0" type="line"/>
    </contour>
  </outline>
</glyph>
<glyph name="uni019D" format="1">
  <advance width="644"/>
  <unicode hex="019D"/>
  <outline>
    <contour>
      <point x="158" y="-53" type="line" smooth="yes"/>
      <point x="158" y="-115"/>
      <point x="57" y="-205"/>
      <point x="-7" y="-205" type="qcurve" smooth="yes"/>
      <point x="-35" y="-205" type="line"/>
      <point x="-35" y="-135" type="line"/>
      <point x="-7" y="-135" type="line" smooth="yes"/>
      <point x="29" y="-135"/>
      <point x="81" y="-88"/>
      <point x="81" y="-53" type="qcurve" smooth="yes"/>
      <point x="81" y="698" type="line"/>
      <point x="158" y="698" type="line"/>
      <point x="487" y="126" type="line"/>
      <point x="487" y="698" type="line"/>
      <point x="563" y="698" type="line"/>
      <point x="563" y="0" type="line"/>
      <point x="487" y="0" type="line"/>
      <point x="158" y="570" type="line"/>
    </contour>
  </outline>
</glyph>
<glyph name="uni019E" format="1">
  <advance width="547"/>
  <unicode hex="019E"/>
  <outline>
    <contour>
      <point x="281" y="581" type="move" name="above"/>
    </contour>
    <contour>
      <point x="277" y="0" type="move" name="below"/>
    </contour>
    <contour>
      <point x="134" y="421" type="line"/>
      <point x="199" y="496"/>
      <point x="276" y="496" type="qcurve" smooth="yes"/>
      <point x="369" y="496"/>
      <point x="488" y="392"/>
      <point x="488" y="303" type="qcurve" smooth="yes"/>
      <point x="488" y="-205" type="line"/>
      <point x="419" y="-205" type="line"/>
      <point x="419" y="303" type="line" smooth="yes"/>
      <point x="419" y="360"/>
      <point x="336" y="432"/>
      <point x="210" y="432"/>
      <point x="134" y="319"/>
      <point x="134" y="240" type="qcurve" smooth="yes"/>
      <point x="134" y="0" type="line"/>
      <point x="65" y="0" type="line"/>
      <point x="65" y="479" type="line"/>
      <point x="134" y="479" type="line"/>
    </contour>
  </outline>
</glyph>
<glyph name="uni01A4" format="1">
  <advance width="697"/>
  <unicode hex="01A4"/>
  <outline>
    <contour>
      <point x="285" y="634" type="line"/>
      <point x="285" y="352" type="line"/>
      <point x="431" y="352" type="line" smooth="yes"/>
      <point x="501" y="352"/>
      <point x="592" y="425"/>
      <point x="592" y="561"/>
      <point x="501" y="634"/>
      <point x="431" y="634" type="qcurve" smooth="yes"/>
    </contour>
    <contour>
      <point x="92" y="436" type="line"/>
      <point x="28" y="436" type="line"/>
      <point x="28" y="547" type="line" smooth="yes"/>
      <point x="28" y="610"/>
      <point x="117" y="698"/>
      <point x="180" y="698" type="qcurve" smooth="yes"/>
      <point x="431" y="698" type="line" smooth="yes"/>
      <point x="529" y="698"/>
      <point x="676" y="592"/>
      <point x="676" y="394"/>
      <point x="531" y="288"/>
      <point x="433" y="288" type="qcurve" smooth="yes"/>
      <point x="285" y="288" type="line"/>
      <point x="285" y="0" type="line"/>
      <point x="208" y="0" type="line"/>
      <point x="208" y="629" type="line"/>
      <point x="180" y="629" type="line" smooth="yes"/>
      <point x="144" y="629"/>
      <point x="92" y="582"/>
      <point x="92" y="547" type="qcurve" smooth="yes"/>
    </contour>
  </outline>
</glyph>
<glyph name="uni01A5" format="1">
  <advance width="574"/>
  <unicode hex="01A5"/>
  <outline>
    <contour>
      <point x="471" y="314"/>
      <point x="372" y="432"/>
      <point x="234" y="432"/>
      <point x="135" y="314"/>
      <point x="135" y="164"/>
      <point x="234" y="47"/>
      <point x="372" y="47"/>
      <point x="471" y="164"/>
    </contour>
    <contour>
      <point x="398" y="-17"/>
      <point x="198" y="-17"/>
      <point x="135" y="76" type="qcurve"/>
      <point x="135" y="-205" type="line"/>
      <point x="65" y="-205" type="line"/>
      <point x="65" y="499" type="line" smooth="yes"/>
      <point x="65" y="562"/>
      <point x="152" y="649"/>
      <point x="215" y="649" type="qcurve" smooth="yes"/>
      <point x="287" y="649" type="line"/>
      <point x="287" y="581" type="line"/>
      <point x="215" y="581" type="line" smooth="yes"/>
      <point x="180" y="581"/>
      <point x="134" y="534"/>
      <point x="134" y="499" type="qcurve" smooth="yes"/>
      <point x="134" y="405" type="line"/>
      <point x="195" y="495"/>
      <point x="396" y="495"/>
      <point x="540" y="343"/>
      <point x="540" y="136"/>
    </contour>
  </outline>
</glyph>
<glyph name="uni01A9" format="1">
  <advance width="510"/>
  <unicode hex="01A9"/>
  <outline>
    <contour>
      <point x="306" y="344" type="line"/>
      <point x="131" y="63" type="line"/>
      <point x="480" y="63" type="line"/>
      <point x="480" y="0" type="line"/>
      <point x="44" y="0" type="line"/>
      <point x="44" y="65" type="line"/>
      <point x="218" y="344" type="line"/>
      <point x="44" y="622" type="line"/>
      <point x="44" y="698" type="line"/>
      <point x="480" y="698" type="line"/>
      <point x="480" y="635" type="line"/>
      <point x="125" y="635" type="line"/>
    </contour>
  </outline>
</glyph>
<glyph name="uni01AD" format="1">
  <advance width="306"/>
  <unicode hex="01AD"/>
  <outline>
    <contour>
      <point x="160" y="152" type="line" smooth="yes"/>
      <point x="160" y="117"/>
      <point x="212" y="70"/>
      <point x="248" y="70" type="qcurve" smooth="yes"/>
      <point x="275" y="70" type="line"/>
      <point x="275" y="0" type="line"/>
      <point x="248" y="0" type="line" smooth="yes"/>
      <point x="184" y="0"/>
      <point x="90" y="90"/>
      <point x="90" y="152" type="qcurve" smooth="yes"/>
      <point x="90" y="416" type="line"/>
      <point x="29" y="416" type="line"/>
      <point x="29" y="479" type="line"/>
      <point x="90" y="479" type="line"/>
      <point x="90" y="592" type="line" smooth="yes"/>
      <point x="90" y="657"/>
      <point x="174" y="743"/>
      <point x="248" y="743" type="qcurve"/>
      <point x="248" y="684" type="line"/>
      <point x="200" y="684"/>
      <point x="160" y="640"/>
      <point x="160" y="592" type="qcurve" smooth="yes"/>
      <point x="160" y="479" type="line"/>
      <point x="270" y="479" type="line"/>
      <point x="270" y="416" type="line"/>
      <point x="160" y="416" type="line"/>
    </contour>
  </outline>
</glyph>
<glyph name="uni01B1" format="1">
  <advance width="700"/>
  <unicode hex="01B1"/>
  <outline>
    <contour>
      <point x="350" y="743" type="move" name="above"/>
    </contour>
    <contour>
      <point x="142" y="642" type="qcurve"/>
      <point x="71" y="642" type="line"/>
      <point x="71" y="698" type="line"/>
      <point x="232" y="698" type="line"/>
      <point x="232" y="653"/>
      <point x="200" y="576"/>
      <point x="163" y="525"/>
      <point x="131" y="419"/>
      <point x="131" y="348" type="qcurve" smooth="yes"/>
      <point x="131" y="231"/>
      <point x="259" y="54"/>
      <point x="441" y="54"/>
      <point x="569" y="231"/>
      <point x="569" y="348" type="qcurve" smooth="yes"/>
      <point x="569" y="419"/>
      <point x="537" y="525"/>
      <point x="500" y="576"/>
      <point x="468" y="653"/>
      <point x="468" y="698" type="qcurve"/>
      <point x="630" y="698" type="line"/>
      <point x="630" y="642" type="line"/>
      <point x="558" y="642" type="line"/>
      <point x="565" y="621"/>
      <point x="617" y="530"/>
      <point x="650" y="422"/>
      <point x="650" y="348" type="qcurve" smooth="yes"/>
      <point x="650" y="201"/>
      <point x="469" y="-16"/>
      <point x="231" y="-16"/>
      <point x="50" y="201"/>
      <point x="50" y="348" type="qcurve" smooth="yes"/>
      <point x="50" y="422"/>
      <point x="83" y="530"/>
      <point x="135" y="621"/>
    </contour>
  </outline>
</glyph>
<glyph name="uni01C2" format="1">
  <advance width="322"/>
  <unicode hex="01C2"/>
  <outline>
    <contour>
      <point x="184" y="385" type="line"/>
      <point x="184" y="329" type="line"/>
      <point x="299" y="329" type="line"/>
      <point x="299" y="272" type="line"/>
      <point x="184" y="272" type="line"/>
      <point x="184" y="-70" type="line"/>
      <point x="142" y="-70" type="line"/>
      <point x="142" y="272" type="line"/>
      <point x="24" y="272" type="line"/>
      <point x="24" y="329" type="line"/>
      <point x="142" y="329" type="line"/>
      <point x="142" y="385" type="line"/>
      <point x="24" y="385" type="line"/>
      <point x="24" y="440" type="line"/>
      <point x="142" y="440" type="line"/>
      <point x="142" y="768" type="line"/>
      <point x="184" y="768" type="line"/>
      <point x="184" y="440" type="line"/>
      <point x="299" y="440" type="line"/>
      <point x="299" y="385" type="line"/>
    </contour>
  </outline>
</glyph>
<glyph name="uni0229" format="1">
  <advance width="540"/>
  <unicode hex="0229"/>
  <outline>
    <contour>
      <point x="116" y="303" type="qcurve"/>
      <point x="431" y="303" type="line"/>
      <point x="413" y="360"/>
      <point x="325" y="432"/>
      <point x="221" y="432"/>
      <point x="134" y="360"/>
    </contour>
    <contour>
      <point x="105" y="240" type="line"/>
      <point x="105" y="161"/>
      <point x="206" y="47"/>
      <point x="273" y="47" type="qcurve" smooth="yes"/>
      <point x="346" y="47"/>
      <point x="413" y="88"/>
      <point x="440" y="134" type="qcurve"/>
      <point x="496" y="97" type="line"/>
      <point x="460" y="42"/>
      <point x="371" y="-13"/>
      <point x="294" y="-16" type="qcurve"/>
      <point x="267" y="-70" type="line"/>
      <point x="322" y="-70"/>
      <point x="378" y="-106"/>
      <point x="378" y="-128" type="qcurve" smooth="yes"/>
      <point x="378" y="-205"/>
      <point x="167" y="-205" type="qcurve"/>
      <point x="167" y="-177" type="line"/>
      <point x="218" y="-177"/>
      <point x="310" y="-154"/>
      <point x="310" y="-134" type="qcurve" smooth="yes"/>
      <point x="310" y="-124"/>
      <point x="296" y="-112"/>
      <point x="247" y="-105"/>
      <point x="200" y="-105" type="qcurve"/>
      <point x="243" y="-13" type="line"/>
      <point x="161" y="1"/>
      <point x="36" y="147"/>
      <point x="36" y="240" type="qcurve" smooth="yes"/>
      <point x="36" y="343"/>
      <point x="182" y="496"/>
      <point x="364" y="496"/>
      <point x="511" y="343"/>
      <point x="511" y="240" type="qcurve"/>
    </contour>
  </outline>
</glyph>
<glyph name="uni0237" format="1">
  <advance width="198"/>
  <unicode hex="0237"/>
  <outline>
    <contour>
      <point x="101" y="581" type="move" name="above"/>
    </contour>
    <contour>
      <point x="-46" y="-141" type="line"/>
      <point x="-17" y="-141" type="line" smooth="yes"/>
      <point x="18" y="-141"/>
      <point x="65" y="-89"/>
      <point x="65" y="-53" type="qcurve" smooth="yes"/>
      <point x="65" y="479" type="line"/>
      <point x="134" y="479" type="line"/>
      <point x="134" y="-53" type="line" smooth="yes"/>
      <point x="134" y="-116"/>
      <point x="46" y="-205"/>
      <point x="-17" y="-205" type="qcurve" smooth="yes"/>
      <point x="-46" y="-205" type="line"/>
    </contour>
  </outline>
</glyph>
<glyph name="uni0257" format="1">
  <advance width="574"/>
  <unicode hex="0257"/>
  <outline>
    <contour>
      <point x="35" y="343"/>
      <point x="181" y="496"/>
      <point x="272" y="496" type="qcurve" smooth="yes"/>
      <point x="367" y="496"/>
      <point x="440" y="416" type="qcurve"/>
      <point x="440" y="608" type="line" smooth="yes"/>
      <point x="440" y="671"/>
      <point x="528" y="759"/>
      <point x="591" y="759" type="qcurve" smooth="yes"/>
      <point x="664" y="759" type="line"/>
      <point x="664" y="690" type="line"/>
      <point x="591" y="690" type="line" smooth="yes"/>
      <point x="556" y="690"/>
      <point x="510" y="643"/>
      <point x="510" y="608" type="qcurve" smooth="yes"/>
      <point x="510" y="0" type="line"/>
      <point x="440" y="0" type="line"/>
      <point x="440" y="62" type="line"/>
      <point x="368" y="-16"/>
      <point x="274" y="-16" type="qcurve" smooth="yes"/>
      <point x="183" y="-16"/>
      <point x="35" y="137"/>
    </contour>
    <contour>
      <point x="104" y="161"/>
      <point x="205" y="47"/>
      <point x="339" y="47"/>
      <point x="440" y="161"/>
      <point x="440" y="319"/>
      <point x="339" y="432"/>
      <point x="205" y="432"/>
      <point x="104" y="319"/>
    </contour>
  </outline>
</glyph>
<glyph name="uni0259" format="1">
  <advance width="539"/>
  <unicode hex="0259"/>
  <outline>
    <contour>
      <point x="267" y="581" type="move" name="above"/>
    </contour>
    <component base="uni01DD"/>
  </outline>
</glyph>
<glyph name="uni0265" format="1">
  <advance width="547"/>
  <unicode hex="0265"/>
  <outline>
    <contour>
      <point x="270" y="581" type="move" name="above"/>
    </contour>
    <contour>
      <point x="59" y="176" type="qcurve" smooth="yes"/>
      <point x="59" y="479" type="line"/>
      <point x="129" y="479" type="line"/>
      <point x="129" y="176" type="line" smooth="yes"/>
      <point x="129" y="122"/>
      <point x="207" y="47"/>
      <point x="335" y="47"/>
      <point x="414" y="158"/>
      <point x="414" y="240" type="qcurve" smooth="yes"/>
      <point x="414" y="479" type="line"/>
      <point x="483" y="479" type="line"/>
      <point x="480" y="-204" type="line"/>
      <point x="410" y="-204" type="line"/>
      <point x="414" y="44" type="line"/>
      <point x="356" y="-16"/>
      <point x="271" y="-16" type="qcurve" smooth="yes"/>
      <point x="179" y="-16"/>
      <point x="59" y="87"/>
    </contour>
  </outline>
</glyph>
<glyph name="uni0268" format="1">
  <advance width="256"/>
  <unicode hex="0268"/>
  <outline>
    <contour>
      <point x="73" y="651"/>
      <point x="105" y="683"/>
      <point x="151" y="683"/>
      <point x="183" y="651"/>
      <point x="183" y="605"/>
      <point x="151" y="572"/>
      <point x="105" y="572"/>
      <point x="73" y="605"/>
    </contour>
    <contour>
      <point x="163" y="242" type="line"/>
      <point x="163" y="0" type="line"/>
      <point x="93" y="0" type="line"/>
      <point x="93" y="242" type="line"/>
      <point x="26" y="242" type="line"/>
      <point x="26" y="285" type="line"/>
      <point x="93" y="285" type="line"/>
      <point x="93" y="479" type="line"/>
      <point x="163" y="479" type="line"/>
      <point x="163" y="285" type="line"/>
      <point x="230" y="285" type="line"/>
      <point x="230" y="242" type="line"/>
    </contour>
  </outline>
</glyph>
<glyph name="uni026C" format="1">
  <advance width="368"/>
  <unicode hex="026C"/>
  <outline>
    <contour>
      <point x="178" y="783" type="move" name="above"/>
    </contour>
    <contour>
      <point x="212" y="250" type="line"/>
      <point x="252" y="266"/>
      <point x="306" y="341"/>
      <point x="306" y="395" type="qcurve"/>
      <point x="343" y="395" type="line"/>
      <point x="343" y="327"/>
      <point x="267" y="229"/>
      <point x="212" y="211" type="qcurve"/>
      <point x="212" y="0" type="line"/>
      <point x="142" y="0" type="line"/>
      <point x="142" y="205" type="line"/>
      <point x="78" y="210"/>
      <point x="10" y="279"/>
      <point x="10" y="334" type="qcurve" smooth="yes"/>
      <point x="10" y="367"/>
      <point x="55" y="420"/>
      <point x="96" y="420" type="qcurve" smooth="yes"/>
      <point x="122" y="420"/>
      <point x="142" y="406" type="qcurve"/>
      <point x="142" y="743" type="line"/>
      <point x="212" y="743" type="line"/>
    </contour>
    <contour>
      <point x="142" y="242" type="qcurve"/>
      <point x="142" y="334" type="line" smooth="yes"/>
      <point x="142" y="355"/>
      <point x="115" y="383"/>
      <point x="96" y="383" type="qcurve" smooth="yes"/>
      <point x="47" y="383"/>
      <point x="47" y="334" type="qcurve" smooth="yes"/>
      <point x="47" y="298"/>
      <point x="97" y="247"/>
    </contour>
  </outline>
</glyph>
<glyph name="uni0279" format="1">
  <advance width="483"/>
  <unicode hex="0279"/>
  <outline>
    <contour>
      <point x="349" y="254" type="line"/>
      <point x="261" y="254" type="line" smooth="yes"/>
      <point x="118" y="254"/>
      <point x="118" y="159" type="qcurve" smooth="yes"/>
      <point x="118" y="111"/>
      <point x="193" y="63"/>
      <point x="261" y="63" type="qcurve" smooth="yes"/>
      <point x="349" y="63" type="line"/>
    </contour>
    <contour>
      <point x="419" y="0" type="line"/>
      <point x="259" y="0" type="line" smooth="yes"/>
      <point x="159" y="0"/>
      <point x="40" y="82"/>
      <point x="40" y="159" type="qcurve" smooth="yes"/>
      <point x="40" y="269"/>
      <point x="164" y="305" type="qcurve"/>
      <point x="42" y="479" type="line"/>
      <point x="127" y="479" type="line"/>
      <point x="241" y="317" type="line"/>
      <point x="261" y="317" type="line"/>
      <point x="349" y="317" type="line"/>
      <point x="349" y="479" type="line"/>
      <point x="419" y="479" type="line"/>
    </contour>
  </outline>
</glyph>
<glyph name="uni027E" format="1">
  <advance width="439"/>
  <unicode hex="027E"/>
  <outline>
    <contour>
      <point x="378" y="352" type="line"/>
      <point x="346" y="432"/>
      <point x="260" y="432" type="qcurve" smooth="yes"/>
      <point x="197" y="432"/>
      <point x="128" y="324"/>
      <point x="128" y="240" type="qcurve" smooth="yes"/>
      <point x="128" y="0" type="line"/>
      <point x="58" y="0" type="line"/>
      <point x="58" y="240" type="line" smooth="yes"/>
      <point x="58" y="357"/>
      <point x="170" y="496"/>
      <point x="260" y="496" type="qcurve" smooth="yes"/>
      <point x="393" y="496"/>
      <point x="441" y="383" type="qcurve"/>
    </contour>
  </outline>
</glyph>
<glyph name="uni02B7" format="1">
  <advance width="545"/>
  <unicode hex="02B7"/>
  <outline>
    <contour>
      <point x="137" y="314" type="line"/>
      <point x="38" y="581" type="line"/>
      <point x="99" y="581" type="line"/>
      <point x="166" y="399" type="line"/>
      <point x="233" y="581" type="line"/>
      <point x="288" y="581" type="line"/>
      <point x="354" y="399" type="line"/>
      <point x="422" y="581" type="line"/>
      <point x="483" y="581" type="line"/>
      <point x="384" y="314" type="line"/>
      <point x="326" y="314" type="line"/>
      <point x="260" y="487" type="line"/>
      <point x="196" y="314" type="line"/>
    </contour>
  </outline>
</glyph>
<glyph name="uni02BB" format="1">
  <advance width="251"/>
  <unicode hex="02BB"/>
  <outline>
    <contour>
      <point x="170" y="605"/>
      <point x="138" y="573"/>
      <point x="92" y="573"/>
      <point x="59" y="605"/>
      <point x="59" y="628" type="qcurve" smooth="yes"/>
      <point x="59" y="663"/>
      <point x="78" y="724"/>
      <point x="106" y="762"/>
      <point x="120" y="776" type="qcurve"/>
      <point x="134" y="788"/>
      <point x="144" y="794" type="qcurve" smooth="yes"/>
      <point x="153" y="800" type="line"/>
      <point x="169" y="790" type="line"/>
      <point x="130" y="751"/>
      <point x="115" y="684" type="qcurve"/>
      <point x="138" y="684"/>
      <point x="170" y="651"/>
    </contour>
  </outline>
</glyph>
<glyph name="uni02BF" format="1">
  <advance width="281"/>
  <unicode hex="02BF"/>
  <outline>
    <contour>
      <point x="198" y="659" type="line"/>
      <point x="163" y="659"/>
      <point x="116" y="612"/>
      <point x="116" y="578" type="qcurve" smooth="yes"/>
      <point x="116" y="543"/>
      <point x="164" y="494"/>
      <point x="198" y="494" type="qcurve"/>
      <point x="198" y="439" type="line"/>
      <point x="141" y="439"/>
      <point x="59" y="521"/>
      <point x="59" y="635"/>
      <point x="141" y="714"/>
      <point x="198" y="714" type="qcurve"/>
    </contour>
  </outline>
</glyph>
<glyph name="dotaccent" format="1">
  <advance width="253"/>
  <unicode hex="02D9"/>
  <outline>
    <contour>
      <point x="59" y="651"/>
      <point x="91" y="683"/>
      <point x="137" y="683"/>
      <point x="170" y="651"/>
      <point x="170" y="605"/>
      <point x="137" y="572"/>
      <point x="91" y="572"/>
      <point x="59" y="605"/>
    </contour>
  </outline>
</glyph>
<glyph name="ogonek" format="1">
  <advance width="378"/>
  <unicode hex="02DB"/>
  <outline>
    <contour>
      <point x="127" y="-84" type="qcurve" smooth="yes"/>
      <point x="127" y="-154"/>
      <point x="232" y="-154" type="qcurve" smooth="yes"/>
      <point x="260" y="-154"/>
      <point x="288" y="-147" type="qcurve"/>
      <point x="295" y="-174" type="line"/>
      <point x="235" y="-190"/>
      <point x="188" y="-190" type="qcurve" smooth="yes"/>
      <point x="59" y="-190"/>
      <point x="59" y="-93" type="qcurve" smooth="yes"/>
      <point x="59" y="6"/>
      <point x="195" y="25" type="qcurve"/>
      <point x="195" y="0" type="line"/>
      <point x="153" y="-13"/>
      <point x="127" y="-47"/>
    </contour>
  </outline>
</glyph>
<glyph name="tilde" format="1">
  <advance width="493"/>
  <unicode hex="02DC"/>
  <outline>
    <contour>
      <point x="296" y="649" type="qcurve" smooth="yes"/>
      <point x="323" y="649"/>
      <point x="361" y="690"/>
      <point x="365" y="714" type="qcurve"/>
      <point x="412" y="714" type="line"/>
      <point x="406" y="666"/>
      <point x="339" y="581"/>
      <point x="296" y="581" type="qcurve" smooth="yes"/>
      <point x="262" y="581"/>
      <point x="193" y="646"/>
      <point x="176" y="646" type="qcurve" smooth="yes"/>
      <point x="149" y="646"/>
      <point x="110" y="605"/>
      <point x="106" y="581" type="qcurve"/>
      <point x="60" y="581" type="line"/>
      <point x="66" y="629"/>
      <point x="133" y="714"/>
      <point x="176" y="714" type="qcurve" smooth="yes"/>
      <point x="210" y="714"/>
      <point x="279" y="649"/>
    </contour>
  </outline>
</glyph>
<glyph name="gravecomb" format="1">
  <advance width="0"/>
  <unicode hex="0300"/>
  <outline>
    <contour>
      <point x="-319" y="581" type="move" name="_above"/>
    </contour>
    <contour>
      <point x="-259" y="581" type="line"/>
      <point x="-495" y="700" type="line"/>
      <point x="-460" y="760" type="line"/>
      <point x="-239" y="615" type="line"/>
    </contour>
  </outline>
</glyph>
<glyph name="acutecomb" format="1">
  <advance width="0"/>
  <unicode hex="0301"/>
  <outline>
    <contour>
      <point x="-319" y="581" type="move" name="_above"/>
    </contour>
    <contour>
      <point x="-399" y="615" type="line"/>
      <point x="-178" y="760" type="line"/>
      <point x="-143" y="700" type="line"/>
      <point x="-379" y="581" type="line"/>
    </contour>
  </outline>
</glyph>
<glyph name="uni0302" format="1">
  <advance width="0"/>
  <unicode hex="0302"/>
  <outline>
    <contour>
      <point x="-319" y="581" type="move" name="_above"/>
    </contour>
    <contour>
      <point x="-438" y="581" type="line"/>
      <point x="-458" y="615" type="line"/>
      <point x="-319" y="742" type="line"/>
      <point x="-180" y="615" type="line"/>
      <point x="-200" y="581" type="line"/>
      <point x="-319" y="659" type="line"/>
    </contour>
  </outline>
</glyph>
<glyph name="tildecomb" format="1">
  <advance width="0"/>
  <unicode hex="0303"/>
  <outline>
    <contour>
      <point x="-319" y="581" type="move" name="_above"/>
    </contour>
    <contour>
      <point x="-258" y="649" type="qcurve" smooth="yes"/>
      <point x="-231" y="649"/>
      <point x="-193" y="690"/>
      <point x="-189" y="714" type="qcurve"/>
      <point x="-142" y="714" type="line"/>
      <point x="-148" y="666"/>
      <point x="-215" y="581"/>
      <point x="-258" y="581" type="qcurve" smooth="yes"/>
      <point x="-292" y="581"/>
      <point x="-361" y="646"/>
      <point x="-378" y="646" type="qcurve" smooth="yes"/>
      <point x="-405" y="646"/>
      <point x="-443" y="605"/>
      <point x="-447" y="581" type="qcurve"/>
      <point x="-494" y="581" type="line"/>
      <point x="-488" y="629"/>
      <point x="-421" y="714"/>
      <point x="-378" y="714" type="qcurve" smooth="yes"/>
      <point x="-344" y="714"/>
      <point x="-275" y="649"/>
    </contour>
  </outline>
</glyph>
<glyph name="uni0304" format="1">
  <advance width="0"/>
  <unicode hex="0304"/>
  <outline>
    <contour>
      <point x="-319" y="581" type="move" name="_above"/>
    </contour>
    <contour>
      <point x="-464" y="646" type="line"/>
      <point x="-190" y="646" type="line"/>
      <point x="-190" y="600" type="line"/>
      <point x="-464" y="600" type="line"/>
    </contour>
  </outline>
</glyph>
<glyph name="uni0306" format="1">
  <advance width="0"/>
  <unicode hex="0306"/>
  <outline>
    <contour>
      <point x="-319" y="581" type="move" name="_above"/>
    </contour>
    <contour>
      <point x="-222" y="715" type="qcurve"/>
      <point x="-180" y="715" type="line"/>
      <point x="-181" y="709"/>
      <point x="-187" y="690"/>
      <point x="-209" y="641"/>
      <point x="-237" y="604"/>
      <point x="-288" y="573"/>
      <point x="-350" y="573"/>
      <point x="-401" y="602"/>
      <point x="-430" y="644"/>
      <point x="-450" y="686"/>
      <point x="-454" y="700" type="qcurve" smooth="yes"/>
      <point x="-458" y="715" type="line"/>
      <point x="-416" y="715" type="line"/>
      <point x="-408" y="699"/>
      <point x="-399" y="683"/>
      <point x="-375" y="651"/>
      <point x="-341" y="636"/>
      <point x="-297" y="636"/>
      <point x="-263" y="651"/>
      <point x="-239" y="683"/>
      <point x="-230" y="699"/>
    </contour>
  </outline>
</glyph>
<glyph name="uni030C" format="1">
  <advance width="0"/>
  <unicode hex="030C"/>
  <outline>
    <contour>
      <point x="-319" y="581" type="move" name="_above"/>
    </contour>
    <contour>
      <point x="-200" y="742" type="line"/>
      <point x="-180" y="708" type="line"/>
      <point x="-319" y="581" type="line"/>
      <point x="-458" y="708" type="line"/>
      <point x="-438" y="742" type="line"/>
      <point x="-319" y="664" type="line"/>
    </contour>
  </outline>
</glyph>
<glyph name="uni030D" format="1">
  <advance width="0"/>
  <unicode hex="030D"/>
  <outline>
    <contour>
      <point x="-319" y="581" type="move" name="_above"/>
    </contour>
    <contour>
      <point x="-299" y="782" type="line"/>
      <point x="-299" y="581" type="line"/>
      <point x="-340" y="581" type="line"/>
      <point x="-340" y="782" type="line"/>
    </contour>
  </outline>
</glyph>
<glyph name="uni0313" format="1">
  <advance width="0"/>
  <unicode hex="0313"/>
  <outline>
    <contour>
      <point x="-319" y="581" type="move" name="_above"/>
    </contour>
    <contour>
      <point x="-375" y="768"/>
      <point x="-342" y="800"/>
      <point x="-296" y="800"/>
      <point x="-264" y="768"/>
      <point x="-264" y="745" type="qcurve" smooth="yes"/>
      <point x="-264" y="710"/>
      <point x="-283" y="649"/>
      <point x="-310" y="612"/>
      <point x="-338" y="584"/>
      <point x="-348" y="578" type="qcurve" smooth="yes"/>
      <point x="-357" y="573" type="line"/>
      <point x="-374" y="584" type="line"/>
      <point x="-334" y="622"/>
      <point x="-319" y="689" type="qcurve"/>
      <point x="-342" y="689"/>
      <point x="-375" y="722"/>
    </contour>
  </outline>
</glyph>
<glyph name="uni0314" format="1">
  <advance width="0"/>
  <unicode hex="0314"/>
  <outline>
    <contour>
      <point x="-319" y="581" type="move" name="_above"/>
    </contour>
    <contour>
      <point x="-264" y="722"/>
      <point x="-296" y="689"/>
      <point x="-319" y="689" type="qcurve"/>
      <point x="-312" y="659"/>
      <point x="-298" y="633" type="qcurve" smooth="yes"/>
      <point x="-285" y="608"/>
      <point x="-275" y="596" type="qcurve" smooth="yes"/>
      <point x="-265" y="584" type="line"/>
      <point x="-282" y="573" type="line"/>
      <point x="-286" y="575"/>
      <point x="-298" y="583"/>
      <point x="-330" y="612"/>
      <point x="-355" y="648"/>
      <point x="-375" y="710"/>
      <point x="-375" y="745" type="qcurve" smooth="yes"/>
      <point x="-375" y="768"/>
      <point x="-342" y="800"/>
      <point x="-296" y="800"/>
      <point x="-264" y="768"/>
    </contour>
  </outline>
</glyph>
<glyph name="uni032D" format="1">
  <advance width="0"/>
  <unicode hex="032D"/>
  <outline>
    <contour>
      <point x="-317" y="0" type="move" name="_below"/>
    </contour>
    <component base="uni0302" yOffset="-801"/>
  </outline>
</glyph>
<glyph name="uni0330" format="1">
  <advance width="0"/>
  <unicode hex="0330"/>
  <outline>
    <contour>
      <point x="-317" y="0" type="move" name="_below"/>
    </contour>
    <component base="tildecomb" yOffset="-784"/>
  </outline>
</glyph>
<glyph name="uni0331" format="1">
  <advance width="0"/>
  <unicode hex="0331"/>
  <outline>
    <contour>
      <point x="-328" y="0" type="move" name="_below"/>
    </contour>
    <component base="uni0304" yOffset="-717"/>
  </outline>
</glyph>
<glyph name="uni0332" format="1">
  <advance width="0"/>
  <unicode hex="0332"/>
  <outline>
    <contour>
      <point x="-332" y="0" type="move" name="_below"/>
    </contour>
    <contour>
      <point x="-515" y="-96" type="line"/>
      <point x="-139" y="-96" type="line"/>
      <point x="-139" y="-142" type="line"/>
      <point x="-515" y="-142" type="line"/>
    </contour>
  </outline>
</glyph>
<glyph name="uni0335" format="1">
  <advance width="0"/>
  <unicode hex="0335"/>
  <outline>
    <contour>
      <point x="-376" y="300" type="line"/>
      <point x="-108" y="300" type="line"/>
      <point x="-108" y="251" type="line"/>
      <point x="-376" y="251" type="line"/>
    </contour>
  </outline>
</glyph>
<glyph name="tonos" format="1">
  <advance width="291"/>
  <unicode hex="0384"/>
  <outline>
    <contour>
      <point x="72" y="634" type="line"/>
      <point x="163" y="827" type="line"/>
      <point x="225" y="798" type="line"/>
      <point x="108" y="617" type="line"/>
    </contour>
  </outline>
</glyph>
<glyph name="Alphatonos" format="1">
  <advance width="609"/>
  <unicode hex="0386"/>
  <outline>
    <contour>
      <point x="56" y="631" type="line"/>
      <point x="147" y="824" type="line"/>
      <point x="210" y="795" type="line"/>
      <point x="92" y="614" type="line"/>
    </contour>
    <contour>
      <point x="355" y="696" type="line"/>
      <point x="609" y="0" type="line"/>
      <point x="527" y="0" type="line"/>
      <point x="456" y="196" type="line"/>
      <point x="173" y="196" type="line"/>
      <point x="102" y="0" type="line"/>
      <point x="20" y="0" type="line"/>
      <point x="273" y="696" type="line"/>
      <point x="273" y="698" type="line"/>
      <point x="356" y="698" type="line"/>
    </contour>
    <contour>
      <point x="314" y="584" type="line"/>
      <point x="197" y="259" type="line"/>
      <point x="433" y="259" type="line"/>
    </contour>
  </outline>
</glyph>
<glyph name="Omicrontonos" format="1">
  <advance width="720"/>
  <unicode hex="038C"/>
  <outline>
    <contour>
      <point x="12" y="631" type="line"/>
      <point x="103" y="824" type="line"/>
      <point x="166" y="795" type="line"/>
      <point x="48" y="614" type="line"/>
    </contour>
    <contour>
      <point x="159" y="348" type="qcurve" smooth="yes"/>
      <point x="159" y="231"/>
      <point x="287" y="54"/>
      <point x="469" y="54"/>
      <point x="597" y="231"/>
      <point x="597" y="348" type="qcurve" smooth="yes"/>
      <point x="597" y="466"/>
      <point x="469" y="644"/>
      <point x="287" y="644"/>
      <point x="159" y="466"/>
    </contour>
    <contour>
      <point x="78" y="495"/>
      <point x="259" y="714"/>
      <point x="497" y="714"/>
      <point x="678" y="495"/>
      <point x="678" y="201"/>
      <point x="497" y="-16"/>
      <point x="259" y="-16"/>
      <point x="78" y="201"/>
    </contour>
  </outline>
</glyph>
<glyph name="Upsilontonos" format="1">
  <advance width="674"/>
  <unicode hex="038E"/>
  <outline>
    <contour>
      <point x="433" y="442" type="line"/>
      <point x="587" y="698" type="line"/>
      <point x="676" y="698" type="line"/>
      <point x="470" y="355" type="line"/>
      <point x="470" y="0" type="line"/>
      <point x="394" y="0" type="line"/>
      <point x="394" y="358" type="line"/>
      <point x="190" y="698" type="line"/>
      <point x="280" y="698" type="line"/>
    </contour>
    <contour>
      <point x="20" y="631" type="line"/>
      <point x="112" y="824" type="line"/>
      <point x="174" y="795" type="line"/>
      <point x="56" y="614" type="line"/>
    </contour>
  </outline>
</glyph>
<glyph name="Theta" format="1">
  <advance width="686"/>
  <unicode hex="0398"/>
  <outline>
    <contour>
      <point x="124" y="348" type="qcurve" smooth="yes"/>
      <point x="124" y="231"/>
      <point x="252" y="54"/>
      <point x="434" y="54"/>
      <point x="562" y="231"/>
      <point x="562" y="348" type="qcurve" smooth="yes"/>
      <point x="562" y="466"/>
      <point x="434" y="644"/>
      <point x="252" y="644"/>
      <point x="124" y="466"/>
    </contour>
    <contour>
      <point x="43" y="495"/>
      <point x="224" y="714"/>
      <point x="462" y="714"/>
      <point x="643" y="495"/>
      <point x="643" y="201"/>
      <point x="462" y="-16"/>
      <point x="224" y="-16"/>
      <point x="43" y="201"/>
    </contour>
    <contour>
      <point x="190" y="377" type="line"/>
      <point x="494" y="377" type="line"/>
      <point x="494" y="321" type="line"/>
      <point x="190" y="321" type="line"/>
    </contour>
  </outline>
</glyph>
<glyph name="Pi" format="1">
  <advance width="622"/>
  <unicode hex="03A0"/>
  <outline>
    <contour>
      <point x="81" y="0" type="line"/>
      <point x="81" y="698" type="line"/>
      <point x="158" y="698" type="line"/>
      <point x="465" y="698" type="line"/>
      <point x="542" y="698" type="line"/>
      <point x="542" y="0" type="line"/>
      <point x="465" y="0" type="line"/>
      <point x="465" y="635" type="line"/>
      <point x="158" y="635" type="line"/>
      <point x="158" y="0" type="line"/>
    </contour>
  </outline>
</glyph>
<glyph name="Phi" format="1">
  <advance width="653"/>
  <unicode hex="03A6"/>
  <outline>
    <contour>
      <point x="367" y="78" type="qcurve"/>
      <point x="367" y="0" type="line"/>
      <point x="290" y="0" type="line"/>
      <point x="290" y="77" type="line"/>
      <point x="183" y="90"/>
      <point x="27" y="247"/>
      <point x="27" y="449"/>
      <point x="183" y="608"/>
      <point x="290" y="621" type="qcurve"/>
      <point x="290" y="698" type="line"/>
      <point x="367" y="698" type="line"/>
      <point x="367" y="620" type="line"/>
      <point x="473" y="606"/>
      <point x="627" y="448"/>
      <point x="627" y="248"/>
      <point x="474" y="92"/>
    </contour>
    <contour>
      <point x="367" y="549" type="qcurve"/>
      <point x="367" y="150" type="line"/>
      <point x="441" y="164"/>
      <point x="546" y="277"/>
      <point x="546" y="348" type="qcurve" smooth="yes"/>
      <point x="546" y="420"/>
      <point x="441" y="535"/>
    </contour>
    <contour>
      <point x="290" y="550" type="line"/>
      <point x="215" y="537"/>
      <point x="108" y="420"/>
      <point x="108" y="276"/>
      <point x="215" y="161"/>
      <point x="290" y="148" type="qcurve"/>
    </contour>
  </outline>
</glyph>
<glyph name="alpha" format="1">
  <advance width="611"/>
  <unicode hex="03B1"/>
  <outline>
    <contour>
      <point x="485" y="479" type="line"/>
      <point x="558" y="479" type="line"/>
      <point x="495" y="258" type="line"/>
      <point x="495" y="240" type="line" smooth="yes"/>
      <point x="495" y="123"/>
      <point x="511" y="48"/>
      <point x="537" y="48" type="qcurve" smooth="yes"/>
      <point x="549" y="48"/>
      <point x="567" y="63" type="qcurve"/>
      <point x="608" y="14" type="line"/>
      <point x="593" y="2"/>
      <point x="580" y="-7"/>
      <point x="551" y="-16"/>
      <point x="531" y="-16" type="qcurve" smooth="yes"/>
      <point x="486" y="-16"/>
      <point x="442" y="25"/>
      <point x="433" y="85" type="qcurve"/>
      <point x="369" y="-16"/>
      <point x="264" y="-16" type="qcurve" smooth="yes"/>
      <point x="158" y="-16"/>
      <point x="36" y="122"/>
      <point x="36" y="240" type="qcurve" smooth="yes"/>
      <point x="36" y="345"/>
      <point x="169" y="496"/>
      <point x="258" y="496" type="qcurve" smooth="yes"/>
      <point x="319" y="496"/>
      <point x="427" y="440"/>
      <point x="459" y="386" type="qcurve"/>
    </contour>
    <contour>
      <point x="424" y="264" type="line"/>
      <point x="417" y="341"/>
      <point x="322" y="432"/>
      <point x="258" y="432" type="qcurve" smooth="yes"/>
      <point x="193" y="432"/>
      <point x="105" y="320"/>
      <point x="105" y="240" type="qcurve" smooth="yes"/>
      <point x="105" y="151"/>
      <point x="186" y="47"/>
      <point x="262" y="47" type="qcurve" smooth="yes"/>
      <point x="315" y="47"/>
      <point x="387" y="135"/>
      <point x="399" y="178" type="qcurve" smooth="yes"/>
    </contour>
  </outline>
</glyph>
<glyph name="delta" format="1">
  <advance width="546"/>
  <unicode hex="03B4"/>
  <outline>
    <contour>
      <point x="105" y="161"/>
      <point x="206" y="47"/>
      <point x="340" y="47"/>
      <point x="441" y="161"/>
      <point x="441" y="319"/>
      <point x="340" y="432"/>
      <point x="206" y="432"/>
      <point x="105" y="319"/>
    </contour>
    <contour>
      <point x="278" y="743" type="qcurve" smooth="yes"/>
      <point x="416" y="743" type="line"/>
      <point x="416" y="680" type="line"/>
      <point x="282" y="680" type="line" smooth="yes"/>
      <point x="205" y="680"/>
      <point x="205" y="641" type="qcurve" smooth="yes"/>
      <point x="205" y="616"/>
      <point x="230" y="596" type="qcurve" smooth="yes"/>
      <point x="422" y="434" type="line" smooth="yes"/>
      <point x="511" y="359"/>
      <point x="511" y="240" type="qcurve" smooth="yes"/>
      <point x="511" y="136"/>
      <point x="366" y="-16"/>
      <point x="184" y="-16"/>
      <point x="36" y="137"/>
      <point x="36" y="240" type="qcurve" smooth="yes"/>
      <point x="36" y="334"/>
      <point x="161" y="481"/>
      <point x="244" y="494" type="qcurve"/>
      <point x="167" y="559" type="line" smooth="yes"/>
      <point x="124" y="596"/>
      <point x="124" y="639" type="qcurve" smooth="yes"/>
      <point x="124" y="684"/>
      <point x="197" y="743"/>
    </contour>
  </outline>
</glyph>
<glyph name="epsilon" format="1">
  <advance width="434"/>
  <unicode hex="03B5"/>
  <outline>
    <contour>
      <point x="255" y="227" type="line"/>
      <point x="112" y="227"/>
      <point x="112" y="137" type="qcurve" smooth="yes"/>
      <point x="112" y="101"/>
      <point x="176" y="53"/>
      <point x="220" y="53" type="qcurve" smooth="yes"/>
      <point x="302" y="53"/>
      <point x="370" y="121" type="qcurve"/>
      <point x="415" y="76" type="line"/>
      <point x="394" y="55"/>
      <point x="370" y="35"/>
      <point x="321" y="4"/>
      <point x="258" y="-10"/>
      <point x="218" y="-10" type="qcurve" smooth="yes"/>
      <point x="146" y="-10"/>
      <point x="34" y="69"/>
      <point x="34" y="137" type="qcurve" smooth="yes"/>
      <point x="34" y="224"/>
      <point x="128" y="266" type="qcurve"/>
      <point x="73" y="298"/>
      <point x="73" y="353" type="qcurve" smooth="yes"/>
      <point x="73" y="417"/>
      <point x="159" y="489"/>
      <point x="230" y="489" type="qcurve" smooth="yes"/>
      <point x="248" y="489"/>
      <point x="279" y="484"/>
      <point x="306" y="470"/>
      <point x="324" y="461"/>
      <point x="349" y="436"/>
      <point x="358" y="426"/>
      <point x="384" y="395"/>
      <point x="387" y="391" type="qcurve"/>
      <point x="339" y="350" type="line"/>
      <point x="276" y="426"/>
      <point x="230" y="426" type="qcurve" smooth="yes"/>
      <point x="190" y="426"/>
      <point x="151" y="391"/>
      <point x="151" y="353" type="qcurve" smooth="yes"/>
      <point x="151" y="299"/>
      <point x="255" y="291" type="qcurve"/>
    </contour>
  </outline>
</glyph>
<glyph name="zeta" format="1">
  <advance width="431"/>
  <unicode hex="03B6"/>
  <outline>
    <contour>
      <point x="105" y="743" type="line"/>
      <point x="434" y="743" type="line"/>
      <point x="434" y="680" type="line"/>
      <point x="319" y="599" type="line" smooth="yes"/>
      <point x="256" y="555"/>
      <point x="164" y="428"/>
      <point x="121" y="303"/>
      <point x="103" y="211"/>
      <point x="103" y="180" type="qcurve" smooth="yes"/>
      <point x="103" y="55"/>
      <point x="214" y="55" type="qcurve" smooth="yes"/>
      <point x="249" y="55"/>
      <point x="291" y="66"/>
      <point x="316" y="66" type="qcurve" smooth="yes"/>
      <point x="372" y="66"/>
      <point x="437" y="-6"/>
      <point x="437" y="-59" type="qcurve" smooth="yes"/>
      <point x="437" y="-107"/>
      <point x="363" y="-178"/>
      <point x="306" y="-178" type="qcurve"/>
      <point x="306" y="-115" type="line"/>
      <point x="332" y="-115"/>
      <point x="374" y="-83"/>
      <point x="374" y="-59" type="qcurve" smooth="yes"/>
      <point x="374" y="2"/>
      <point x="316" y="2" type="qcurve" smooth="yes"/>
      <point x="293" y="2"/>
      <point x="251" y="-8"/>
      <point x="214" y="-8" type="qcurve" smooth="yes"/>
      <point x="121" y="-8"/>
      <point x="40" y="86"/>
      <point x="40" y="180" type="qcurve" smooth="yes"/>
      <point x="40" y="210"/>
      <point x="50" y="282"/>
      <point x="81" y="392"/>
      <point x="132" y="494"/>
      <point x="224" y="607"/>
      <point x="284" y="650" type="qcurve" smooth="yes"/>
      <point x="325" y="680" type="line"/>
      <point x="105" y="680" type="line"/>
    </contour>
  </outline>
</glyph>
<glyph name="kappa" format="1">
  <advance width="446"/>
  <unicode hex="03BA"/>
  <outline>
    <contour>
      <point x="65" y="0" type="line"/>
      <point x="65" y="479" type="line"/>
      <point x="134" y="479" type="line"/>
      <point x="134" y="289" type="line"/>
      <point x="324" y="479" type="line"/>
      <point x="424" y="479" type="line"/>
      <point x="240" y="295" type="line"/>
      <point x="438" y="0" type="line"/>
      <point x="353" y="0" type="line"/>
      <point x="189" y="245" type="line"/>
      <point x="134" y="190" type="line"/>
      <point x="134" y="0" type="line"/>
    </contour>
  </outline>
</glyph>
<glyph name="mu" format="1">
  <advance width="592"/>
  <unicode hex="03BC"/>
  <outline>
    <contour>
      <point x="458" y="77" type="line"/>
      <point x="392" y="-17"/>
      <point x="282" y="-17" type="qcurve" smooth="yes"/>
      <point x="190" y="-17"/>
      <point x="133" y="69" type="qcurve"/>
      <point x="133" y="-205" type="line"/>
      <point x="65" y="-205" type="line"/>
      <point x="65" y="479" type="line"/>
      <point x="133" y="479" type="line"/>
      <point x="133" y="380" type="line" smooth="yes"/>
      <point x="133" y="218"/>
      <point x="214" y="47"/>
      <point x="282" y="47" type="qcurve" smooth="yes"/>
      <point x="359" y="47"/>
      <point x="458" y="193"/>
      <point x="458" y="364" type="qcurve" smooth="yes"/>
      <point x="458" y="479" type="line"/>
      <point x="528" y="479" type="line"/>
      <point x="528" y="0" type="line"/>
      <point x="458" y="0" type="line"/>
    </contour>
  </outline>
</glyph>
<glyph name="xi" format="1">
  <advance width="447"/>
  <unicode hex="03BE"/>
  <outline>
    <contour>
      <point x="211" y="-8" type="qcurve" smooth="yes"/>
      <point x="137" y="-8"/>
      <point x="37" y="113"/>
      <point x="37" y="210" type="qcurve" smooth="yes"/>
      <point x="37" y="285"/>
      <point x="117" y="407"/>
      <point x="184" y="443" type="qcurve"/>
      <point x="76" y="480"/>
      <point x="76" y="571" type="qcurve" smooth="yes"/>
      <point x="76" y="640"/>
      <point x="118" y="680" type="qcurve"/>
      <point x="37" y="680" type="line"/>
      <point x="37" y="743" type="line"/>
      <point x="351" y="743" type="line"/>
      <point x="351" y="680" type="line"/>
      <point x="146" y="680"/>
      <point x="146" y="571" type="qcurve" smooth="yes"/>
      <point x="146" y="485"/>
      <point x="351" y="485" type="qcurve"/>
      <point x="351" y="422" type="line"/>
      <point x="228" y="422"/>
      <point x="108" y="303"/>
      <point x="108" y="210" type="qcurve" smooth="yes"/>
      <point x="108" y="140"/>
      <point x="167" y="55"/>
      <point x="211" y="55" type="qcurve" smooth="yes"/>
      <point x="246" y="55"/>
      <point x="306" y="66"/>
      <point x="331" y="66" type="qcurve" smooth="yes"/>
      <point x="387" y="66"/>
      <point x="452" y="-6"/>
      <point x="452" y="-59" type="qcurve" smooth="yes"/>
      <point x="452" y="-107"/>
      <point x="378" y="-178"/>
      <point x="321" y="-178" type="qcurve"/>
      <point x="321" y="-115" type="line"/>
      <point x="347" y="-115"/>
      <point x="388" y="-83"/>
      <point x="388" y="-59" type="qcurve" smooth="yes"/>
      <point x="388" y="2"/>
      <point x="331" y="2" type="qcurve" smooth="yes"/>
      <point x="308" y="2"/>
      <point x="248" y="-8"/>
    </contour>
  </outline>
</glyph>
<glyph name="rho" format="1">
  <advance width="566"/>
  <unicode hex="03C1"/>
  <outline>
    <contour>
      <point x="126" y="65" type="qcurve"/>
      <point x="126" y="-204" type="line"/>
      <point x="56" y="-204" type="line"/>
      <point x="56" y="240" type="line" smooth="yes"/>
      <point x="56" y="343"/>
      <point x="203" y="496"/>
      <point x="385" y="496"/>
      <point x="531" y="343"/>
      <point x="531" y="240" type="qcurve" smooth="yes"/>
      <point x="531" y="136"/>
      <point x="386" y="-16"/>
      <point x="296" y="-16" type="qcurve" smooth="yes"/>
      <point x="201" y="-16"/>
    </contour>
    <contour>
      <point x="126" y="161"/>
      <point x="227" y="47"/>
      <point x="361" y="47"/>
      <point x="462" y="161"/>
      <point x="462" y="319"/>
      <point x="361" y="432"/>
      <point x="227" y="432"/>
      <point x="126" y="319"/>
    </contour>
  </outline>
</glyph>
<glyph name="sigma1" format="1">
  <advance width="477"/>
  <unicode hex="03C2"/>
  <outline>
    <contour>
      <point x="461" y="496" type="qcurve"/>
      <point x="461" y="432" type="line"/>
      <point x="386" y="432"/>
      <point x="283" y="423"/>
      <point x="188" y="395"/>
      <point x="134" y="346"/>
      <point x="102" y="266"/>
      <point x="102" y="209" type="qcurve" smooth="yes"/>
      <point x="102" y="184"/>
      <point x="112" y="138"/>
      <point x="134" y="89"/>
      <point x="182" y="57"/>
      <point x="215" y="55" type="qcurve" smooth="yes"/>
      <point x="331" y="48"/>
      <point x="436" y="1"/>
      <point x="436" y="-59" type="qcurve" smooth="yes"/>
      <point x="436" y="-110"/>
      <point x="372" y="-178"/>
      <point x="305" y="-178" type="qcurve"/>
      <point x="305" y="-115" type="line"/>
      <point x="373" y="-115"/>
      <point x="373" y="-59" type="qcurve" smooth="yes"/>
      <point x="373" y="-44"/>
      <point x="347" y="-25"/>
      <point x="295" y="-15"/>
      <point x="259" y="-11"/>
      <point x="227" y="-9" type="qcurve" smooth="yes"/>
      <point x="216" y="-8"/>
      <point x="211" y="-8" type="qcurve" smooth="yes"/>
      <point x="39" y="4"/>
      <point x="39" y="209" type="qcurve" smooth="yes"/>
      <point x="39" y="371"/>
      <point x="244" y="496"/>
    </contour>
  </outline>
</glyph>
<glyph name="sigma" format="1">
  <advance width="574"/>
  <unicode hex="03C3"/>
  <outline>
    <contour>
      <point x="104" y="161"/>
      <point x="205" y="47"/>
      <point x="339" y="47"/>
      <point x="440" y="161"/>
      <point x="440" y="319"/>
      <point x="339" y="432"/>
      <point x="205" y="432"/>
      <point x="104" y="319"/>
    </contour>
    <contour>
      <point x="424" y="432" type="line"/>
      <point x="510" y="353"/>
      <point x="510" y="240" type="qcurve" smooth="yes"/>
      <point x="510" y="136"/>
      <point x="365" y="-16"/>
      <point x="183" y="-16"/>
      <point x="35" y="137"/>
      <point x="35" y="343"/>
      <point x="181" y="496"/>
      <point x="272" y="496" type="qcurve" smooth="yes"/>
      <point x="554" y="496" type="line"/>
      <point x="554" y="432" type="line"/>
    </contour>
  </outline>
</glyph>
<glyph name="upsilon" format="1">
  <advance width="542"/>
  <unicode hex="03C5"/>
  <outline>
    <contour>
      <point x="335" y="47"/>
      <point x="415" y="122"/>
      <point x="415" y="176" type="qcurve" smooth="yes"/>
      <point x="415" y="479" type="line"/>
      <point x="483" y="479" type="line"/>
      <point x="483" y="176" type="line" smooth="yes"/>
      <point x="483" y="86"/>
      <point x="363" y="-17"/>
      <point x="179" y="-17"/>
      <point x="59" y="86"/>
      <point x="59" y="176" type="qcurve" smooth="yes"/>
      <point x="59" y="479" type="line"/>
      <point x="128" y="479" type="line"/>
      <point x="128" y="176" type="line" smooth="yes"/>
      <point x="128" y="122"/>
      <point x="207" y="47"/>
    </contour>
  </outline>
</glyph>
<glyph name="chi" format="1">
  <advance width="429"/>
  <unicode hex="03C7"/>
  <outline>
    <contour>
      <point x="176" y="141" type="line"/>
      <point x="18" y="479" type="line"/>
      <point x="96" y="479" type="line"/>
      <point x="215" y="223" type="line"/>
      <point x="334" y="479" type="line"/>
      <point x="412" y="479" type="line"/>
      <point x="254" y="141" type="line"/>
      <point x="415" y="-205" type="line"/>
      <point x="338" y="-205" type="line"/>
      <point x="215" y="58" type="line"/>
      <point x="92" y="-205" type="line"/>
      <point x="15" y="-205" type="line"/>
    </contour>
  </outline>
</glyph>
<glyph name="psi" format="1">
  <advance width="622"/>
  <unicode hex="03C8"/>
  <outline>
    <contour>
      <point x="346" y="-15" type="qcurve"/>
      <point x="346" y="-204" type="line"/>
      <point x="276" y="-204" type="line"/>
      <point x="276" y="-15" type="line"/>
      <point x="174" y="-6"/>
      <point x="58" y="121"/>
      <point x="58" y="227" type="qcurve" smooth="yes"/>
      <point x="58" y="479" type="line"/>
      <point x="127" y="479" type="line"/>
      <point x="127" y="227" type="line" smooth="yes"/>
      <point x="127" y="64"/>
      <point x="276" y="49" type="qcurve"/>
      <point x="276" y="479" type="line"/>
      <point x="346" y="479" type="line"/>
      <point x="346" y="49" type="line"/>
      <point x="496" y="64"/>
      <point x="496" y="227" type="qcurve" smooth="yes"/>
      <point x="496" y="479" type="line"/>
      <point x="564" y="479" type="line"/>
      <point x="564" y="227" type="line" smooth="yes"/>
      <point x="564" y="121"/>
      <point x="448" y="-6"/>
    </contour>
  </outline>
</glyph>
<glyph name="afii10053" format="1">
  <advance width="586"/>
  <unicode hex="0404"/>
  <outline>
    <contour>
      <point x="559" y="147" type="line"/>
      <point x="465" y="-16"/>
      <point x="327" y="-16" type="qcurve" smooth="yes"/>
      <point x="210" y="-16"/>
      <point x="45" y="199"/>
      <point x="45" y="497"/>
      <point x="210" y="714"/>
      <point x="327" y="714" type="qcurve" smooth="yes"/>
      <point x="454" y="714"/>
      <point x="547" y="570" type="qcurve"/>
      <point x="486" y="527" type="line"/>
      <point x="415" y="644"/>
      <point x="327" y="644" type="qcurve" smooth="yes"/>
      <point x="244" y="644"/>
      <point x="132" y="490"/>
      <point x="124" y="381" type="qcurve"/>
      <point x="394" y="381" type="line"/>
      <point x="394" y="317" type="line"/>
      <point x="124" y="317" type="line"/>
      <point x="132" y="207"/>
      <point x="244" y="54"/>
      <point x="327" y="54" type="qcurve" smooth="yes"/>
      <point x="423" y="54"/>
      <point x="493" y="183" type="qcurve"/>
    </contour>
  </outline>
</glyph>
<glyph name="afii10058" format="1">
  <advance width="905"/>
  <unicode hex="0409"/>
  <outline>
    <contour>
      <point x="221" y="152" type="line" smooth="yes"/>
      <point x="221" y="89"/>
      <point x="133" y="0"/>
      <point x="70" y="0" type="qcurve" smooth="yes"/>
      <point x="0" y="0" type="line"/>
      <point x="0" y="63" type="line"/>
      <point x="62" y="63" type="line" smooth="yes"/>
      <point x="97" y="63"/>
      <point x="144" y="116"/>
      <point x="144" y="152" type="qcurve" smooth="yes"/>
      <point x="144" y="698" type="line"/>
      <point x="493" y="698" type="line"/>
      <point x="493" y="410" type="line"/>
      <point x="639" y="410" type="line" smooth="yes"/>
      <point x="737" y="410"/>
      <point x="884" y="304"/>
      <point x="884" y="106"/>
      <point x="739" y="0"/>
      <point x="641" y="0" type="qcurve" smooth="yes"/>
      <point x="416" y="0" type="line"/>
      <point x="416" y="635" type="line"/>
      <point x="221" y="635" type="line"/>
    </contour>
    <contour>
      <point x="493" y="63" type="line"/>
      <point x="639" y="63" type="line" smooth="yes"/>
      <point x="708" y="63"/>
      <point x="800" y="137"/>
      <point x="800" y="273"/>
      <point x="709" y="346"/>
      <point x="639" y="346" type="qcurve" smooth="yes"/>
      <point x="493" y="346" type="line"/>
    </contour>
  </outline>
</glyph>
<glyph name="afii10059" format="1">
  <advance width="920"/>
  <unicode hex="040A"/>
  <outline>
    <contour>
      <point x="81" y="0" type="line"/>
      <point x="81" y="698" type="line"/>
      <point x="158" y="698" type="line"/>
      <point x="158" y="410" type="line"/>
      <point x="431" y="410" type="line"/>
      <point x="431" y="698" type="line"/>
      <point x="509" y="698" type="line"/>
      <point x="509" y="410" type="line"/>
      <point x="654" y="410" type="line" smooth="yes"/>
      <point x="752" y="410"/>
      <point x="899" y="304"/>
      <point x="899" y="106"/>
      <point x="754" y="0"/>
      <point x="656" y="0" type="qcurve" smooth="yes"/>
      <point x="431" y="0" type="line"/>
      <point x="431" y="346" type="line"/>
      <point x="158" y="346" type="line"/>
      <point x="158" y="0" type="line"/>
    </contour>
    <contour>
      <point x="509" y="346" type="line"/>
      <point x="509" y="63" type="line"/>
      <point x="654" y="63" type="line" smooth="yes"/>
      <point x="723" y="63"/>
      <point x="815" y="137"/>
      <point x="815" y="273"/>
      <point x="724" y="346"/>
      <point x="654" y="346" type="qcurve" smooth="yes"/>
    </contour>
  </outline>
</glyph>
<glyph name="afii10060" format="1">
  <advance width="723"/>
  <unicode hex="040B"/>
  <outline>
    <contour>
      <point x="607" y="0" type="line"/>
      <point x="607" y="183" type="line" smooth="yes"/>
      <point x="607" y="420"/>
      <point x="454" y="420" type="qcurve" smooth="yes"/>
      <point x="295" y="420"/>
      <point x="295" y="183" type="qcurve" smooth="yes"/>
      <point x="295" y="0" type="line"/>
      <point x="219" y="0" type="line"/>
      <point x="219" y="635" type="line"/>
      <point x="19" y="635" type="line"/>
      <point x="19" y="698" type="line"/>
      <point x="495" y="698" type="line"/>
      <point x="495" y="635" type="line"/>
      <point x="295" y="635" type="line"/>
      <point x="295" y="430" type="line"/>
      <point x="352" y="489"/>
      <point x="454" y="489" type="qcurve" smooth="yes"/>
      <point x="683" y="489"/>
      <point x="683" y="183" type="qcurve" smooth="yes"/>
      <point x="683" y="0" type="line"/>
    </contour>
  </outline>
</glyph>
<glyph name="afii10049" format="1">
  <advance width="575"/>
  <unicode hex="042F"/>
  <outline>
    <contour>
      <point x="418" y="634" type="line"/>
      <point x="313" y="634" type="line" smooth="yes"/>
      <point x="244" y="634"/>
      <point x="153" y="561"/>
      <point x="153" y="425"/>
      <point x="244" y="352"/>
      <point x="313" y="352" type="qcurve" smooth="yes"/>
      <point x="418" y="352" type="line"/>
    </contour>
    <contour>
      <point x="495" y="0" type="line"/>
      <point x="418" y="0" type="line"/>
      <point x="418" y="288" type="line"/>
      <point x="391" y="288" type="line" smooth="yes"/>
      <point x="334" y="288"/>
      <point x="229" y="240"/>
      <point x="211" y="189" type="qcurve" smooth="yes"/>
      <point x="177" y="89"/>
      <point x="103" y="0"/>
      <point x="27" y="0" type="qcurve"/>
      <point x="27" y="63" type="line"/>
      <point x="36" y="63"/>
      <point x="53" y="67"/>
      <point x="66" y="72"/>
      <point x="79" y="85"/>
      <point x="87" y="92"/>
      <point x="98" y="113"/>
      <point x="104" y="122"/>
      <point x="114" y="149"/>
      <point x="118" y="160"/>
      <point x="129" y="192"/>
      <point x="131" y="197" type="qcurve" smooth="yes"/>
      <point x="153" y="262"/>
      <point x="214" y="303" type="qcurve"/>
      <point x="149" y="325"/>
      <point x="69" y="420"/>
      <point x="69" y="493" type="qcurve" smooth="yes"/>
      <point x="69" y="592"/>
      <point x="215" y="698"/>
      <point x="313" y="698" type="qcurve" smooth="yes"/>
      <point x="495" y="698" type="line"/>
    </contour>
  </outline>
</glyph>
<glyph name="afii10067" format="1">
  <advance width="478"/>
  <unicode hex="0432"/>
  <outline>
    <contour>
      <point x="65" y="0" type="line"/>
      <point x="65" y="479" type="line"/>
      <point x="202" y="479" type="line" smooth="yes"/>
      <point x="312" y="479"/>
      <point x="404" y="420"/>
      <point x="404" y="353" type="qcurve" smooth="yes"/>
      <point x="404" y="297"/>
      <point x="366" y="267" type="qcurve"/>
      <point x="443" y="232"/>
      <point x="443" y="150" type="qcurve" smooth="yes"/>
      <point x="443" y="74"/>
      <point x="325" y="0"/>
      <point x="224" y="0" type="qcurve" smooth="yes"/>
    </contour>
    <contour>
      <point x="134" y="63" type="line"/>
      <point x="222" y="63" type="line" smooth="yes"/>
      <point x="366" y="63"/>
      <point x="366" y="150" type="qcurve" smooth="yes"/>
      <point x="366" y="196"/>
      <point x="295" y="227"/>
      <point x="222" y="227" type="qcurve" smooth="yes"/>
      <point x="134" y="227" type="line"/>
    </contour>
    <contour>
      <point x="134" y="416" type="line"/>
      <point x="134" y="291" type="line"/>
      <point x="199" y="291" type="line" smooth="yes"/>
      <point x="273" y="291"/>
      <point x="327" y="315"/>
      <point x="327" y="391"/>
      <point x="276" y="416"/>
      <point x="202" y="416" type="qcurve" smooth="yes"/>
    </contour>
  </outline>
</glyph>
<glyph name="afii10073" format="1">
  <advance width="433"/>
  <unicode hex="0437"/>
  <outline>
    <contour>
      <point x="179" y="227" type="qcurve"/>
      <point x="179" y="291" type="line"/>
      <point x="284" y="299"/>
      <point x="284" y="353" type="qcurve" smooth="yes"/>
      <point x="284" y="426"/>
      <point x="204" y="426" type="qcurve" smooth="yes"/>
      <point x="158" y="426"/>
      <point x="95" y="350" type="qcurve"/>
      <point x="47" y="391" type="line"/>
      <point x="50" y="395"/>
      <point x="76" y="426"/>
      <point x="85" y="436"/>
      <point x="110" y="461"/>
      <point x="128" y="470"/>
      <point x="155" y="484"/>
      <point x="186" y="489"/>
      <point x="204" y="489" type="qcurve" smooth="yes"/>
      <point x="275" y="489"/>
      <point x="361" y="417"/>
      <point x="361" y="353" type="qcurve" smooth="yes"/>
      <point x="361" y="298"/>
      <point x="306" y="266" type="qcurve"/>
      <point x="400" y="224"/>
      <point x="400" y="137" type="qcurve" smooth="yes"/>
      <point x="400" y="69"/>
      <point x="288" y="-10"/>
      <point x="216" y="-10" type="qcurve" smooth="yes"/>
      <point x="176" y="-10"/>
      <point x="113" y="4"/>
      <point x="64" y="35"/>
      <point x="40" y="55"/>
      <point x="19" y="76" type="qcurve"/>
      <point x="65" y="121" type="line"/>
      <point x="133" y="53"/>
      <point x="214" y="53" type="qcurve" smooth="yes"/>
      <point x="258" y="53"/>
      <point x="323" y="101"/>
      <point x="323" y="137" type="qcurve" smooth="yes"/>
      <point x="323" y="227"/>
    </contour>
  </outline>
</glyph>
<glyph name="afii10076" format="1">
  <advance width="471"/>
  <unicode hex="043A"/>
  <outline>
    <contour>
      <point x="65" y="0" type="line"/>
      <point x="65" y="479" type="line"/>
      <point x="134" y="479" type="line"/>
      <point x="134" y="260" type="line"/>
      <point x="169" y="266"/>
      <point x="220" y="303"/>
      <point x="246" y="352"/>
      <point x="278" y="405"/>
      <point x="311" y="450"/>
      <point x="376" y="479"/>
      <point x="422" y="479" type="qcurve"/>
      <point x="422" y="464"/>
      <point x="423" y="420"/>
      <point x="423" y="403" type="qcurve"/>
      <point x="391" y="403"/>
      <point x="343" y="371"/>
      <point x="318" y="330"/>
      <point x="280" y="266"/>
      <point x="263" y="247" type="qcurve"/>
      <point x="350" y="198"/>
      <point x="445" y="51"/>
      <point x="445" y="0" type="qcurve"/>
      <point x="362" y="0" type="line"/>
      <point x="362" y="14"/>
      <point x="349" y="57"/>
      <point x="317" y="117"/>
      <point x="248" y="179"/>
      <point x="200" y="201" type="qcurve"/>
      <point x="165" y="187"/>
      <point x="134" y="185" type="qcurve"/>
      <point x="134" y="0" type="line"/>
    </contour>
  </outline>
</glyph>
<glyph name="afii10079" format="1">
  <advance width="542"/>
  <unicode hex="043D"/>
  <outline>
    <contour>
      <point x="65" y="0" type="line"/>
      <point x="65" y="479" type="line"/>
      <point x="134" y="479" type="line"/>
      <point x="134" y="281" type="line"/>
      <point x="409" y="281" type="line"/>
      <point x="409" y="479" type="line"/>
      <point x="478" y="479" type="line"/>
      <point x="478" y="0" type="line"/>
      <point x="409" y="0" type="line"/>
      <point x="409" y="217" type="line"/>
      <point x="134" y="217" type="line"/>
      <point x="134" y="0" type="line"/>
    </contour>
  </outline>
</glyph>
<glyph name="afii10081" format="1">
  <advance width="542"/>
  <unicode hex="043F"/>
  <outline>
    <contour>
      <point x="65" y="0" type="line"/>
      <point x="65" y="479" type="line"/>
      <point x="478" y="479" type="line"/>
      <point x="478" y="0" type="line"/>
      <point x="409" y="0" type="line"/>
      <point x="409" y="416" type="line"/>
      <point x="134" y="416" type="line"/>
      <point x="134" y="0" type="line"/>
    </contour>
  </outline>
</glyph>
<glyph name="afii10089" format="1">
  <advance width="485"/>
  <unicode hex="0447"/>
  <outline>
    <contour>
      <point x="28" y="355" type="qcurve" smooth="yes"/>
      <point x="28" y="479" type="line"/>
      <point x="96" y="479" type="line"/>
      <point x="96" y="355" type="line" smooth="yes"/>
      <point x="96" y="299"/>
      <point x="161" y="226"/>
      <point x="287" y="226"/>
      <point x="350" y="333"/>
      <point x="350" y="418" type="qcurve" smooth="yes"/>
      <point x="350" y="479" type="line"/>
      <point x="421" y="479" type="line"/>
      <point x="421" y="0" type="line"/>
      <point x="350" y="0" type="line"/>
      <point x="350" y="212" type="line"/>
      <point x="300" y="162"/>
      <point x="224" y="162" type="qcurve" smooth="yes"/>
      <point x="134" y="162"/>
      <point x="28" y="264"/>
    </contour>
  </outline>
</glyph>
<glyph name="afii10093" format="1">
  <advance width="643"/>
  <unicode hex="044B"/>
  <outline>
    <contour>
      <point x="509" y="0" type="line"/>
      <point x="509" y="479" type="line"/>
      <point x="579" y="479" type="line"/>
      <point x="579" y="0" type="line"/>
    </contour>
    <contour>
      <point x="65" y="0" type="line"/>
      <point x="65" y="479" type="line"/>
      <point x="134" y="479" type="line"/>
      <point x="134" y="317" type="line"/>
      <point x="222" y="317" type="line" smooth="yes"/>
      <point x="322" y="317"/>
      <point x="443" y="235"/>
      <point x="443" y="159" type="qcurve" smooth="yes"/>
      <point x="443" y="82"/>
      <point x="324" y="0"/>
      <point x="224" y="0" type="qcurve" smooth="yes"/>
    </contour>
    <contour>
      <point x="134" y="254" type="line"/>
      <point x="134" y="63" type="line"/>
      <point x="222" y="63" type="line" smooth="yes"/>
      <point x="290" y="63"/>
      <point x="366" y="111"/>
      <point x="366" y="159" type="qcurve" smooth="yes"/>
      <point x="366" y="206"/>
      <point x="290" y="254"/>
      <point x="222" y="254" type="qcurve" smooth="yes"/>
    </contour>
  </outline>
</glyph>
<glyph name="afii10094" format="1">
  <advance width="464"/>
  <unicode hex="044C"/>
  <outline>
    <contour>
      <point x="65" y="0" type="line"/>
      <point x="65" y="479" type="line"/>
      <point x="134" y="479" type="line"/>
      <point x="134" y="317" type="line"/>
      <point x="222" y="317" type="line" smooth="yes"/>
      <point x="322" y="317"/>
      <point x="443" y="235"/>
      <point x="443" y="159" type="qcurve" smooth="yes"/>
      <point x="443" y="82"/>
      <point x="324" y="0"/>
      <point x="224" y="0" type="qcurve" smooth="yes"/>
    </contour>
    <contour>
      <point x="134" y="254" type="line"/>
      <point x="134" y="63" type="line"/>
      <point x="222" y="63" type="line" smooth="yes"/>
      <point x="290" y="63"/>
      <point x="366" y="111"/>
      <point x="366" y="159" type="qcurve" smooth="yes"/>
      <point x="366" y="206"/>
      <point x="290" y="254"/>
      <point x="222" y="254" type="qcurve" smooth="yes"/>
    </contour>
  </outline>
</glyph>
<glyph name="afii10095" format="1">
  <advance width="484"/>
  <unicode hex="044D"/>
  <outline>
    <contour>
      <point x="19" y="76" type="qcurve"/>
      <point x="74" y="114" type="line"/>
      <point x="101" y="79"/>
      <point x="159" y="47"/>
      <point x="212" y="47" type="qcurve" smooth="yes"/>
      <point x="274" y="47"/>
      <point x="372" y="145"/>
      <point x="379" y="217" type="qcurve"/>
      <point x="133" y="217" type="line"/>
      <point x="133" y="281" type="line"/>
      <point x="376" y="281" type="line"/>
      <point x="363" y="346"/>
      <point x="270" y="432"/>
      <point x="212" y="432" type="qcurve" smooth="yes"/>
      <point x="134" y="432"/>
      <point x="82" y="359" type="qcurve"/>
      <point x="31" y="399" type="line"/>
      <point x="66" y="443"/>
      <point x="162" y="496"/>
      <point x="212" y="496" type="qcurve" smooth="yes"/>
      <point x="303" y="496"/>
      <point x="450" y="343"/>
      <point x="450" y="137"/>
      <point x="301" y="-16"/>
      <point x="210" y="-16" type="qcurve" smooth="yes"/>
      <point x="144" y="-16"/>
      <point x="56" y="30"/>
    </contour>
  </outline>
</glyph>
<glyph name="afii10097" format="1">
  <advance width="482"/>
  <unicode hex="044F"/>
  <outline>
    <contour>
      <point x="348" y="225" type="line"/>
      <point x="348" y="416" type="line"/>
      <point x="260" y="416" type="line" smooth="yes"/>
      <point x="117" y="416"/>
      <point x="117" y="321" type="qcurve" smooth="yes"/>
      <point x="117" y="273"/>
      <point x="192" y="225"/>
      <point x="260" y="225" type="qcurve" smooth="yes"/>
    </contour>
    <contour>
      <point x="418" y="479" type="line"/>
      <point x="418" y="0" type="line"/>
      <point x="348" y="0" type="line"/>
      <point x="348" y="162" type="line"/>
      <point x="260" y="162" type="line"/>
      <point x="240" y="162" type="line"/>
      <point x="126" y="0" type="line"/>
      <point x="41" y="0" type="line"/>
      <point x="163" y="174" type="line"/>
      <point x="39" y="210"/>
      <point x="39" y="321" type="qcurve" smooth="yes"/>
      <point x="39" y="398"/>
      <point x="158" y="479"/>
      <point x="258" y="479" type="qcurve" smooth="yes"/>
    </contour>
  </outline>
</glyph>
<glyph name="afii10101" format="1">
  <advance width="484"/>
  <unicode hex="0454"/>
  <outline>
    <contour>
      <point x="465" y="76" type="line"/>
      <point x="428" y="30"/>
      <point x="340" y="-16"/>
      <point x="274" y="-16" type="qcurve" smooth="yes"/>
      <point x="183" y="-16"/>
      <point x="35" y="137"/>
      <point x="35" y="343"/>
      <point x="181" y="496"/>
      <point x="272" y="496" type="qcurve" smooth="yes"/>
      <point x="322" y="496"/>
      <point x="419" y="443"/>
      <point x="454" y="399" type="qcurve"/>
      <point x="402" y="359" type="line"/>
      <point x="350" y="432"/>
      <point x="272" y="432" type="qcurve" smooth="yes"/>
      <point x="214" y="432"/>
      <point x="122" y="346"/>
      <point x="109" y="281" type="qcurve"/>
      <point x="347" y="281" type="line"/>
      <point x="347" y="217" type="line"/>
      <point x="105" y="217" type="line"/>
      <point x="112" y="145"/>
      <point x="210" y="47"/>
      <point x="272" y="47" type="qcurve" smooth="yes"/>
      <point x="325" y="47"/>
      <point x="384" y="79"/>
      <point x="411" y="114" type="qcurve"/>
    </contour>
  </outline>
</glyph>
<glyph name="uni048A" format="1">
  <advance width="685"/>
  <unicode hex="048A"/>
  <outline>
    <contour>
      <point x="314" y="736" type="line" smooth="yes"/>
      <point x="235" y="736"/>
      <point x="176" y="788"/>
      <point x="176" y="848" type="qcurve"/>
      <point x="237" y="848" type="line"/>
      <point x="237" y="811"/>
      <point x="268" y="782"/>
      <point x="314" y="782" type="qcurve" smooth="yes"/>
      <point x="341" y="782" type="line" smooth="yes"/>
      <point x="387" y="782"/>
      <point x="420" y="811"/>
      <point x="420" y="848" type="qcurve"/>
      <point x="480" y="848" type="line"/>
      <point x="480" y="788"/>
      <point x="420" y="736"/>
      <point x="341" y="736" type="qcurve" smooth="yes"/>
    </contour>
    <contour>
      <point x="594" y="0" type="line"/>
      <point x="486" y="0" type="line"/>
      <point x="486" y="570" type="line"/>
      <point x="157" y="0" type="line"/>
      <point x="81" y="0" type="line"/>
      <point x="81" y="698" type="line"/>
      <point x="157" y="698" type="line"/>
      <point x="157" y="126" type="line"/>
      <point x="486" y="698" type="line"/>
      <point x="563" y="698" type="line"/>
      <point x="563" y="33" type="line"/>
      <point x="690" y="33" type="line"/>
      <point x="580" y="-168" type="line"/>
      <point x="532" y="-168" type="line"/>
    </contour>
  </outline>
</glyph>
<glyph name="uni0496" format="1">
  <advance width="935"/>
  <unicode hex="0496"/>
  <outline>
    <contour>
      <point x="43" y="623" type="qcurve"/>
      <point x="43" y="640"/>
      <point x="45" y="683"/>
      <point x="45" y="698" type="qcurve"/>
      <point x="103" y="698"/>
      <point x="189" y="641"/>
      <point x="242" y="556"/>
      <point x="291" y="469"/>
      <point x="363" y="397"/>
      <point x="409" y="387" type="qcurve"/>
      <point x="409" y="698" type="line"/>
      <point x="485" y="698" type="line"/>
      <point x="485" y="387" type="line"/>
      <point x="531" y="397"/>
      <point x="603" y="469"/>
      <point x="652" y="556"/>
      <point x="705" y="641"/>
      <point x="791" y="698"/>
      <point x="849" y="698" type="qcurve"/>
      <point x="849" y="683"/>
      <point x="851" y="640"/>
      <point x="851" y="623" type="qcurve"/>
      <point x="812" y="623"/>
      <point x="747" y="571"/>
      <point x="708" y="504"/>
      <point x="649" y="409"/>
      <point x="621" y="381" type="qcurve"/>
      <point x="702" y="314"/>
      <point x="835" y="136"/>
      <point x="860" y="61" type="qcurve"/>
      <point x="930" y="61" type="line"/>
      <point x="930" y="-184" type="line"/>
      <point x="889" y="-184" type="line"/>
      <point x="865" y="0" type="line"/>
      <point x="778" y="0" type="line"/>
      <point x="778" y="67"/>
      <point x="666" y="250"/>
      <point x="557" y="334" type="qcurve"/>
      <point x="521" y="316"/>
      <point x="485" y="311" type="qcurve"/>
      <point x="485" y="0" type="line"/>
      <point x="409" y="0" type="line"/>
      <point x="409" y="311" type="line"/>
      <point x="373" y="316"/>
      <point x="337" y="334" type="qcurve"/>
      <point x="228" y="250"/>
      <point x="116" y="67"/>
      <point x="116" y="0" type="qcurve"/>
      <point x="23" y="0" type="line"/>
      <point x="23" y="74"/>
      <point x="171" y="296"/>
      <point x="273" y="381" type="qcurve"/>
      <point x="245" y="409"/>
      <point x="186" y="504"/>
      <point x="147" y="571"/>
      <point x="82" y="623"/>
    </contour>
  </outline>
</glyph>
<glyph name="uni049C" format="1">
  <advance width="565"/>
  <unicode hex="049C"/>
  <outline>
    <contour>
      <point x="202" y="581" type="line"/>
      <point x="253" y="581" type="line"/>
      <point x="253" y="446" type="line"/>
      <point x="273" y="469"/>
      <point x="318" y="545"/>
      <point x="355" y="605"/>
      <point x="405" y="665"/>
      <point x="476" y="698"/>
      <point x="521" y="698" type="qcurve"/>
      <point x="521" y="683"/>
      <point x="523" y="640"/>
      <point x="523" y="623" type="qcurve"/>
      <point x="484" y="623"/>
      <point x="419" y="571"/>
      <point x="380" y="504"/>
      <point x="321" y="409"/>
      <point x="293" y="381" type="qcurve"/>
      <point x="395" y="296"/>
      <point x="544" y="74"/>
      <point x="544" y="0" type="qcurve"/>
      <point x="451" y="0" type="line"/>
      <point x="451" y="62"/>
      <point x="350" y="234"/>
      <point x="253" y="315" type="qcurve"/>
      <point x="253" y="179" type="line"/>
      <point x="202" y="179" type="line"/>
      <point x="202" y="323" type="line"/>
      <point x="177" y="313"/>
      <point x="158" y="311" type="qcurve"/>
      <point x="158" y="0" type="line"/>
      <point x="81" y="0" type="line"/>
      <point x="81" y="698" type="line"/>
      <point x="158" y="698" type="line"/>
      <point x="158" y="387" type="line"/>
      <point x="180" y="391"/>
      <point x="202" y="403" type="qcurve"/>
    </contour>
  </outline>
</glyph>
<glyph name="uni04A3" format="1">
  <advance width="566"/>
  <unicode hex="04A3"/>
  <outline>
    <contour>
      <point x="65" y="0" type="line"/>
      <point x="65" y="479" type="line"/>
      <point x="134" y="479" type="line"/>
      <point x="134" y="281" type="line"/>
      <point x="409" y="281" type="line"/>
      <point x="409" y="479" type="line"/>
      <point x="478" y="479" type="line"/>
      <point x="478" y="61" type="line"/>
      <point x="538" y="61" type="line"/>
      <point x="538" y="-184" type="line"/>
      <point x="497" y="-184" type="line"/>
      <point x="474" y="0" type="line"/>
      <point x="409" y="0" type="line"/>
      <point x="409" y="217" type="line"/>
      <point x="134" y="217" type="line"/>
      <point x="134" y="0" type="line"/>
    </contour>
  </outline>
</glyph>
<glyph name="uni04A5" format="1">
  <advance width="718"/>
  <unicode hex="04A5"/>
  <outline>
    <contour>
      <point x="65" y="0" type="line"/>
      <point x="65" y="479" type="line"/>
      <point x="134" y="479" type="line"/>
      <point x="134" y="281" type="line"/>
      <point x="409" y="281" type="line"/>
      <point x="409" y="479" type="line"/>
      <point x="718" y="479" type="line"/>
      <point x="718" y="416" type="line"/>
      <point x="478" y="416" type="line"/>
      <point x="478" y="0" type="line"/>
      <point x="409" y="0" type="line"/>
      <point x="409" y="217" type="line"/>
      <point x="134" y="217" type="line"/>
      <point x="134" y="0" type="line"/>
    </contour>
  </outline>
</glyph>
<glyph name="uni04AC" format="1">
  <advance width="516"/>
  <unicode hex="04AC"/>
  <outline>
    <contour>
      <point x="19" y="635" type="line"/>
      <point x="19" y="698" type="line"/>
      <point x="495" y="698" type="line"/>
      <point x="495" y="635" type="line"/>
      <point x="295" y="635" type="line"/>
      <point x="295" y="61" type="line"/>
      <point x="353" y="61" type="line"/>
      <point x="353" y="-184" type="line"/>
      <point x="312" y="-184" type="line"/>
      <point x="290" y="0" type="line"/>
      <point x="219" y="0" type="line"/>
      <point x="219" y="635" type="line"/>
    </contour>
  </outline>
</glyph>
<glyph name="uni04B0" format="1">
  <advance width="484"/>
  <unicode hex="04B0"/>
  <outline>
    <contour>
      <point x="106" y="241" type="line"/>
      <point x="106" y="297" type="line"/>
      <point x="204" y="297" type="line"/>
      <point x="204" y="358" type="line"/>
      <point x="0" y="698" type="line"/>
      <point x="89" y="698" type="line"/>
      <point x="243" y="442" type="line"/>
      <point x="396" y="698" type="line"/>
      <point x="485" y="698" type="line"/>
      <point x="280" y="355" type="line"/>
      <point x="280" y="297" type="line"/>
      <point x="381" y="297" type="line"/>
      <point x="381" y="241" type="line"/>
      <point x="280" y="241" type="line"/>
      <point x="280" y="0" type="line"/>
      <point x="204" y="0" type="line"/>
      <point x="204" y="241" type="line"/>
    </contour>
  </outline>
</glyph>
<glyph name="uni04B2" format="1">
  <advance width="507"/>
  <unicode hex="04B2"/>
  <outline>
    <contour>
      <point x="424" y="0" type="line"/>
      <point x="401" y="0" type="line"/>
      <point x="254" y="276" type="line"/>
      <point x="108" y="0" type="line"/>
      <point x="22" y="0" type="line"/>
      <point x="211" y="357" type="line"/>
      <point x="30" y="698" type="line"/>
      <point x="116" y="698" type="line"/>
      <point x="254" y="437" type="line"/>
      <point x="393" y="698" type="line"/>
      <point x="479" y="698" type="line"/>
      <point x="297" y="357" type="line"/>
      <point x="487" y="0" type="line"/>
      <point x="487" y="-184" type="line"/>
      <point x="446" y="-184" type="line"/>
    </contour>
  </outline>
</glyph>
<glyph name="uni04B8" format="1">
  <advance width="599"/>
  <unicode hex="04B8"/>
  <outline>
    <contour>
      <point x="247" y="465" type="line"/>
      <point x="308" y="465" type="line"/>
      <point x="308" y="336" type="line"/>
      <point x="370" y="348"/>
      <point x="440" y="462"/>
      <point x="440" y="537" type="qcurve" smooth="yes"/>
      <point x="440" y="698" type="line"/>
      <point x="518" y="698" type="line"/>
      <point x="518" y="0" type="line"/>
      <point x="440" y="0" type="line"/>
      <point x="440" y="334" type="line"/>
      <point x="385" y="279"/>
      <point x="308" y="270" type="qcurve"/>
      <point x="308" y="170" type="line"/>
      <point x="247" y="170" type="line"/>
      <point x="247" y="270" type="line"/>
      <point x="150" y="280"/>
      <point x="33" y="431"/>
      <point x="33" y="537" type="qcurve" smooth="yes"/>
      <point x="33" y="698" type="line"/>
      <point x="110" y="698" type="line"/>
      <point x="110" y="537" type="line" smooth="yes"/>
      <point x="110" y="462"/>
      <point x="183" y="346"/>
      <point x="247" y="335" type="qcurve"/>
    </contour>
  </outline>
</glyph>
<glyph name="uni04C0" format="1">
  <advance width="238"/>
  <unicode hex="04C0"/>
  <outline>
    <contour>
      <point x="158" y="698" type="line"/>
      <point x="158" y="0" type="line"/>
      <point x="81" y="0" type="line"/>
      <point x="81" y="698" type="line"/>
    </contour>
  </outline>
</glyph>
<glyph name="uni04C3" format="1">
  <advance width="567"/>
  <unicode hex="04C3"/>
  <outline>
    <contour>
      <point x="339" y="-205" type="qcurve"/>
      <point x="339" y="-152" type="line"/>
      <point x="396" y="-152"/>
      <point x="451" y="-78"/>
      <point x="451" y="16" type="qcurve" smooth="yes"/>
      <point x="451" y="80"/>
      <point x="340" y="249"/>
      <point x="229" y="334" type="qcurve"/>
      <point x="193" y="316"/>
      <point x="158" y="311" type="qcurve"/>
      <point x="158" y="0" type="line"/>
      <point x="81" y="0" type="line"/>
      <point x="81" y="698" type="line"/>
      <point x="158" y="698" type="line"/>
      <point x="158" y="387" type="line"/>
      <point x="204" y="397"/>
      <point x="276" y="469"/>
      <point x="324" y="556"/>
      <point x="378" y="641"/>
      <point x="463" y="698"/>
      <point x="521" y="698" type="qcurve"/>
      <point x="521" y="683"/>
      <point x="523" y="640"/>
      <point x="523" y="623" type="qcurve"/>
      <point x="484" y="623"/>
      <point x="419" y="571"/>
      <point x="380" y="504"/>
      <point x="321" y="409"/>
      <point x="293" y="381" type="qcurve"/>
      <point x="397" y="294"/>
      <point x="539" y="89"/>
      <point x="539" y="16" type="qcurve" smooth="yes"/>
      <point x="539" y="-98"/>
      <point x="440" y="-205"/>
    </contour>
  </outline>
</glyph>
<glyph name="uni04C4" format="1">
  <advance width="473"/>
  <unicode hex="04C4"/>
  <outline>
    <contour>
      <point x="445" y="16" type="qcurve" smooth="yes"/>
      <point x="445" y="-98"/>
      <point x="351" y="-205"/>
      <point x="251" y="-205" type="qcurve"/>
      <point x="251" y="-152" type="line"/>
      <point x="307" y="-152"/>
      <point x="362" y="-78"/>
      <point x="362" y="16" type="qcurve" smooth="yes"/>
      <point x="362" y="30"/>
      <point x="349" y="68"/>
      <point x="317" y="122"/>
      <point x="248" y="179"/>
      <point x="200" y="201" type="qcurve"/>
      <point x="165" y="187"/>
      <point x="134" y="185" type="qcurve"/>
      <point x="134" y="0" type="line"/>
      <point x="65" y="0" type="line"/>
      <point x="65" y="479" type="line"/>
      <point x="134" y="479" type="line"/>
      <point x="134" y="260" type="line"/>
      <point x="169" y="266"/>
      <point x="220" y="303"/>
      <point x="246" y="352"/>
      <point x="278" y="405"/>
      <point x="311" y="450"/>
      <point x="376" y="479"/>
      <point x="422" y="479" type="qcurve"/>
      <point x="422" y="464"/>
      <point x="423" y="420"/>
      <point x="423" y="403" type="qcurve"/>
      <point x="391" y="403"/>
      <point x="343" y="371"/>
      <point x="318" y="330"/>
      <point x="280" y="266"/>
      <point x="263" y="247" type="qcurve"/>
      <point x="352" y="198"/>
      <point x="445" y="64"/>
    </contour>
  </outline>
</glyph>
<glyph name="uni04C6" format="1">
  <advance width="582"/>
  <unicode hex="04C6"/>
  <outline>
    <contour>
      <point x="215" y="152" type="line" smooth="yes"/>
      <point x="215" y="88"/>
      <point x="133" y="0"/>
      <point x="71" y="0" type="qcurve" smooth="yes"/>
      <point x="1" y="0" type="line"/>
      <point x="1" y="63" type="line"/>
      <point x="63" y="63" type="line" smooth="yes"/>
      <point x="98" y="63"/>
      <point x="145" y="116"/>
      <point x="145" y="152" type="qcurve" smooth="yes"/>
      <point x="145" y="479" type="line"/>
      <point x="458" y="479" type="line"/>
      <point x="458" y="33" type="line"/>
      <point x="585" y="33" type="line"/>
      <point x="474" y="-168" type="line"/>
      <point x="427" y="-168" type="line"/>
      <point x="488" y="0" type="line"/>
      <point x="388" y="0" type="line"/>
      <point x="388" y="416" type="line"/>
      <point x="215" y="416" type="line"/>
    </contour>
  </outline>
</glyph>
<glyph name="uni04F6" format="1">
  <advance width="478"/>
  <unicode hex="04F6"/>
  <outline>
    <contour>
      <point x="151" y="0" type="line"/>
      <point x="81" y="0" type="line"/>
      <point x="81" y="698" type="line"/>
      <point x="472" y="698" type="line"/>
      <point x="472" y="634" type="line"/>
      <point x="158" y="634" type="line"/>
      <point x="158" y="61" type="line"/>
      <point x="214" y="61" type="line"/>
      <point x="214" y="-184" type="line"/>
      <point x="173" y="-184" type="line"/>
    </contour>
  </outline>
</glyph>
<glyph name="uni04FA" format="1">
  <advance width="480"/>
  <unicode hex="04FA"/>
  <outline>
    <contour>
      <point x="16" y="423" type="line"/>
      <point x="16" y="479" type="line"/>
      <point x="84" y="479" type="line"/>
      <point x="84" y="698" type="line"/>
      <point x="475" y="698" type="line"/>
      <point x="475" y="634" type="line"/>
      <point x="161" y="634" type="line"/>
      <point x="161" y="479" type="line"/>
      <point x="301" y="479" type="line"/>
      <point x="301" y="423" type="line"/>
      <point x="161" y="423" type="line"/>
      <point x="161" y="41" type="line"/>
      <point x="296" y="41" type="line"/>
      <point x="296" y="-91" type="line" smooth="yes"/>
      <point x="296" y="-138"/>
      <point x="242" y="-189"/>
      <point x="200" y="-189" type="qcurve" smooth="yes"/>
      <point x="151" y="-189"/>
      <point x="121" y="-139" type="qcurve"/>
      <point x="150" y="-118" type="line"/>
      <point x="174" y="-152"/>
      <point x="196" y="-152" type="qcurve" smooth="yes"/>
      <point x="251" y="-152"/>
      <point x="251" y="-79" type="qcurve" smooth="yes"/>
      <point x="251" y="0" type="line"/>
      <point x="84" y="0" type="line"/>
      <point x="84" y="423" type="line"/>
    </contour>
  </outline>
</glyph>
<glyph name="uni04FC" format="1">
  <advance width="561"/>
  <unicode hex="04FC"/>
  <outline>
    <contour>
      <point x="520" y="0" type="line"/>
      <point x="401" y="0" type="line"/>
      <point x="254" y="276" type="line"/>
      <point x="108" y="0" type="line"/>
      <point x="22" y="0" type="line"/>
      <point x="211" y="357" type="line"/>
      <point x="30" y="698" type="line"/>
      <point x="116" y="698" type="line"/>
      <point x="254" y="437" type="line"/>
      <point x="393" y="698" type="line"/>
      <point x="479" y="698" type="line"/>
      <point x="297" y="357" type="line"/>
      <point x="466" y="41" type="line"/>
      <point x="565" y="41" type="line"/>
      <point x="565" y="-91" type="line" smooth="yes"/>
      <point x="565" y="-138"/>
      <point x="511" y="-189"/>
      <point x="469" y="-189" type="qcurve" smooth="yes"/>
      <point x="420" y="-189"/>
      <point x="390" y="-139" type="qcurve"/>
      <point x="420" y="-118" type="line"/>
      <point x="444" y="-152"/>
      <point x="465" y="-152" type="qcurve" smooth="yes"/>
      <point x="520" y="-152"/>
      <point x="520" y="-79" type="qcurve" smooth="yes"/>
    </contour>
  </outline>
</glyph>
<glyph name="uni1DC6" format="1">
  <advance width="0"/>
  <unicode hex="1DC6"/>
  <outline>
    <contour>
      <point x="-319" y="581" type="move" name="_above"/>
    </contour>
    <contour>
      <point x="-212" y="723" type="line"/>
      <point x="-464" y="723" type="line"/>
      <point x="-464" y="769" type="line"/>
      <point x="-190" y="769" type="line"/>
      <point x="-73" y="589" type="line"/>
      <point x="-135" y="559" type="line"/>
    </contour>
  </outline>
</glyph>
<glyph name="uni1E11" format="1">
  <advance width="574"/>
  <unicode hex="1E11"/>
  <outline>
    <contour>
      <point x="104" y="161"/>
      <point x="205" y="47"/>
      <point x="339" y="47"/>
      <point x="440" y="161"/>
      <point x="440" y="319"/>
      <point x="339" y="432"/>
      <point x="205" y="432"/>
      <point x="104" y="319"/>
    </contour>
    <contour>
      <point x="35" y="240" type="qcurve" smooth="yes"/>
      <point x="35" y="343"/>
      <point x="181" y="496"/>
      <point x="272" y="496" type="qcurve" smooth="yes"/>
      <point x="367" y="496"/>
      <point x="440" y="416" type="qcurve"/>
      <point x="440" y="743" type="line"/>
      <point x="510" y="743" type="line"/>
      <point x="510" y="0" type="line"/>
      <point x="440" y="0" type="line"/>
      <point x="440" y="62" type="line"/>
      <point x="379" y="-3"/>
      <point x="301" y="-14" type="qcurve"/>
      <point x="274" y="-70" type="line"/>
      <point x="329" y="-70"/>
      <point x="383" y="-106"/>
      <point x="383" y="-128" type="qcurve" smooth="yes"/>
      <point x="383" y="-205"/>
      <point x="174" y="-205" type="qcurve"/>
      <point x="174" y="-177" type="line"/>
      <point x="225" y="-177"/>
      <point x="317" y="-154"/>
      <point x="317" y="-134" type="qcurve" smooth="yes"/>
      <point x="317" y="-124"/>
      <point x="303" y="-112"/>
      <point x="254" y="-105"/>
      <point x="207" y="-105" type="qcurve"/>
      <point x="249" y="-14" type="line"/>
      <point x="164" y="-2"/>
      <point x="35" y="144"/>
    </contour>
  </outline>
</glyph>
<glyph name="uni1ECC" format="1">
  <advance width="686"/>
  <unicode hex="1ECC"/>
  <outline>
    <contour>
      <point x="343" y="743" type="move" name="above"/>
    </contour>
    <component base="dotbelowcomb" xOffset="662"/>
    <component base="O"/>
  </outline>
</glyph>
<glyph name="uni1ECD" format="1">
  <advance width="544"/>
  <unicode hex="1ECD"/>
  <outline>
    <contour>
      <point x="272" y="581" type="move" name="above"/>
    </contour>
    <component base="dotbelowcomb" xOffset="592"/>
    <component base="o"/>
  </outline>
</glyph>
<glyph name="uni1EE5" format="1">
  <advance width="547"/>
  <unicode hex="1EE5"/>
  <outline>
    <contour>
      <point x="270" y="581" type="move" name="above"/>
    </contour>
    <component base="dotbelowcomb" xOffset="590"/>
    <component base="u"/>
  </outline>
</glyph>
<glyph name="uni1FCE" format="1">
  <advance width="447"/>
  <unicode hex="1FCE"/>
  <outline>
    <contour>
      <point x="227" y="634" type="line"/>
      <point x="318" y="827" type="line"/>
      <point x="381" y="798" type="line"/>
      <point x="263" y="617" type="line"/>
    </contour>
    <contour>
      <point x="102" y="727" type="qcurve" smooth="yes"/>
      <point x="79" y="727"/>
      <point x="46" y="760"/>
      <point x="46" y="782" type="qcurve" smooth="yes"/>
      <point x="46" y="805"/>
      <point x="79" y="838"/>
      <point x="123" y="838"/>
      <point x="140" y="821" type="qcurve" smooth="yes"/>
      <point x="168" y="793"/>
      <point x="168" y="754" type="qcurve" smooth="yes"/>
      <point x="168" y="707"/>
      <point x="98" y="631"/>
      <point x="46" y="631" type="qcurve"/>
      <point x="46" y="646" type="line"/>
      <point x="71" y="646"/>
      <point x="126" y="701"/>
      <point x="128" y="733" type="qcurve"/>
      <point x="116" y="727"/>
    </contour>
  </outline>
</glyph>
<glyph name="endash" format="1">
  <advance width="540"/>
  <unicode hex="2013"/>
  <outline>
    <contour>
      <point x="57" y="274" type="line"/>
      <point x="483" y="274" type="line"/>
      <point x="483" y="218" type="line"/>
      <point x="57" y="218" type="line"/>
    </contour>
  </outline>
</glyph>
<glyph name="emdash" format="1">
  <advance width="740"/>
  <unicode hex="2014"/>
  <outline>
    <contour>
      <point x="57" y="274" type="line"/>
      <point x="683" y="274" type="line"/>
      <point x="683" y="218" type="line"/>
      <point x="57" y="218" type="line"/>
    </contour>
  </outline>
</glyph>
<glyph name="quoteleft" format="1">
  <advance width="193"/>
  <unicode hex="2018"/>
  <outline>
    <contour>
      <point x="154" y="605"/>
      <point x="122" y="573"/>
      <point x="76" y="573"/>
      <point x="43" y="605"/>
      <point x="43" y="628" type="qcurve" smooth="yes"/>
      <point x="43" y="663"/>
      <point x="62" y="724"/>
      <point x="90" y="762"/>
      <point x="104" y="776" type="qcurve" smooth="yes"/>
      <point x="116" y="788"/>
      <point x="126" y="794" type="qcurve" smooth="yes"/>
      <point x="136" y="800" type="line"/>
      <point x="153" y="790" type="line"/>
      <point x="113" y="751"/>
      <point x="98" y="684" type="qcurve"/>
      <point x="99" y="684" type="line" smooth="yes"/>
      <point x="122" y="684"/>
      <point x="154" y="651"/>
    </contour>
  </outline>
</glyph>
<glyph name="quotedblright" format="1">
  <advance width="371"/>
  <unicode hex="201D"/>
  <outline>
    <contour>
      <point x="40" y="765"/>
      <point x="72" y="798"/>
      <point x="118" y="798"/>
      <point x="151" y="765"/>
      <point x="151" y="742" type="qcurve" smooth="yes"/>
      <point x="151" y="707"/>
      <point x="132" y="646"/>
      <point x="104" y="608"/>
      <point x="90" y="594" type="qcurve" smooth="yes"/>
      <point x="78" y="582"/>
      <point x="68" y="576" type="qcurve" smooth="yes"/>
      <point x="58" y="570" type="line"/>
      <point x="41" y="581" type="line"/>
      <point x="80" y="619"/>
      <point x="95" y="686" type="qcurve"/>
      <point x="72" y="686"/>
      <point x="40" y="719"/>
    </contour>
    <contour>
      <point x="240" y="765"/>
      <point x="272" y="798"/>
      <point x="318" y="798"/>
      <point x="350" y="765"/>
      <point x="350" y="742" type="qcurve" smooth="yes"/>
      <point x="350" y="707"/>
      <point x="331" y="646"/>
      <point x="304" y="608"/>
      <point x="290" y="594" type="qcurve" smooth="yes"/>
      <point x="278" y="582"/>
      <point x="268" y="576" type="qcurve" smooth="yes"/>
      <point x="258" y="570" type="line"/>
      <point x="241" y="581" type="line"/>
      <point x="280" y="619"/>
      <point x="295" y="686" type="qcurve"/>
      <point x="272" y="686"/>
      <point x="240" y="719"/>
    </contour>
  </outline>
</glyph>
<glyph name="ellipsis" format="1">
  <advance width="609"/>
  <unicode hex="2026"/>
  <outline>
    <contour>
      <point x="49" y="71"/>
      <point x="81" y="103"/>
      <point x="127" y="103"/>
      <point x="160" y="71"/>
      <point x="160" y="25"/>
      <point x="127" y="-8"/>
      <point x="81" y="-8"/>
      <point x="49" y="25"/>
    </contour>
    <contour>
      <point x="249" y="71"/>
      <point x="281" y="103"/>
      <point x="327" y="103"/>
      <point x="359" y="71"/>
      <point x="359" y="25"/>
      <point x="327" y="-8"/>
      <point x="281" y="-8"/>
      <point x="249" y="25"/>
    </contour>
    <contour>
      <point x="450" y="71"/>
      <point x="482" y="103"/>
      <point x="528" y="103"/>
      <point x="560" y="71"/>
      <point x="560" y="25"/>
      <point x="528" y="-8"/>
      <point x="482" y="-8"/>
      <point x="450" y="25"/>
    </contour>
  </outline>
</glyph>
<glyph name="Euro" format="1">
  <advance width="585"/>
  <unicode hex="20AC"/>
  <outline>
    <contour>
      <point x="550" y="147" type="line"/>
      <point x="504" y="67"/>
      <point x="402" y="-16"/>
      <point x="333" y="-16" type="qcurve" smooth="yes"/>
      <point x="234" y="-16"/>
      <point x="92" y="145"/>
      <point x="72" y="268" type="qcurve"/>
      <point x="39" y="268" type="line"/>
      <point x="39" y="324" type="line"/>
      <point x="67" y="324" type="line"/>
      <point x="67" y="328"/>
      <point x="66" y="344"/>
      <point x="66" y="348" type="qcurve" smooth="yes"/>
      <point x="66" y="374"/>
      <point x="69" y="400" type="qcurve"/>
      <point x="39" y="400" type="line"/>
      <point x="39" y="456" type="line"/>
      <point x="77" y="456" type="line"/>
      <point x="102" y="569"/>
      <point x="240" y="714"/>
      <point x="333" y="714" type="qcurve" smooth="yes"/>
      <point x="397" y="714"/>
      <point x="492" y="641"/>
      <point x="538" y="570" type="qcurve"/>
      <point x="477" y="527" type="line"/>
      <point x="453" y="567"/>
      <point x="421" y="609"/>
      <point x="366" y="644"/>
      <point x="333" y="644" type="qcurve" smooth="yes"/>
      <point x="266" y="644"/>
      <point x="174" y="540"/>
      <point x="155" y="456" type="qcurve"/>
      <point x="314" y="456" type="line"/>
      <point x="314" y="400" type="line"/>
      <point x="146" y="400" type="line"/>
      <point x="143" y="374"/>
      <point x="143" y="348" type="qcurve" smooth="yes"/>
      <point x="143" y="344"/>
      <point x="144" y="328"/>
      <point x="144" y="324" type="qcurve"/>
      <point x="314" y="324" type="line"/>
      <point x="314" y="268" type="line"/>
      <point x="150" y="268" type="line"/>
      <point x="165" y="174"/>
      <point x="260" y="54"/>
      <point x="333" y="54" type="qcurve" smooth="yes"/>
      <point x="384" y="54"/>
      <point x="448" y="118"/>
      <point x="483" y="183" type="qcurve"/>
    </contour>
  </outline>
</glyph>
<glyph name="uni2C64" format="1">
  <advance width="594"/>
  <unicode hex="2C64"/>
  <outline>
    <contour>
      <point x="81" y="698" type="line"/>
      <point x="304" y="698" type="line" smooth="yes"/>
      <point x="402" y="698"/>
      <point x="549" y="592"/>
      <point x="549" y="493" type="qcurve" smooth="yes"/>
      <point x="549" y="415"/>
      <point x="458" y="317"/>
      <point x="386" y="298" type="qcurve"/>
      <point x="558" y="0" type="line"/>
      <point x="473" y="0" type="line"/>
      <point x="307" y="288" type="line"/>
      <point x="158" y="288" type="line"/>
      <point x="158" y="-53" type="line" smooth="yes"/>
      <point x="158" y="-88"/>
      <point x="210" y="-135"/>
      <point x="246" y="-135" type="qcurve" smooth="yes"/>
      <point x="273" y="-135" type="line"/>
      <point x="273" y="-205" type="line"/>
      <point x="246" y="-205" type="line" smooth="yes"/>
      <point x="182" y="-205"/>
      <point x="81" y="-115"/>
      <point x="81" y="-53" type="qcurve" smooth="yes"/>
    </contour>
    <contour>
      <point x="158" y="634" type="line"/>
      <point x="158" y="352" type="line"/>
      <point x="304" y="352" type="line" smooth="yes"/>
      <point x="374" y="352"/>
      <point x="465" y="425"/>
      <point x="465" y="561"/>
      <point x="374" y="634"/>
      <point x="304" y="634" type="qcurve" smooth="yes"/>
    </contour>
  </outline>
</glyph>
<glyph name="uni2C6D" format="1">
  <advance width="723"/>
  <unicode hex="2C6D"/>
  <outline>
    <contour>
      <point x="567" y="-0" type="line"/>
      <point x="567" y="149" type="line"/>
      <point x="539" y="84"/>
      <point x="427" y="-16"/>
      <point x="261" y="-16"/>
      <point x="120" y="92"/>
      <point x="43" y="259"/>
      <point x="43" y="437"/>
      <point x="120" y="605"/>
      <point x="261" y="714"/>
      <point x="343" y="714" type="qcurve" smooth="yes"/>
      <point x="460" y="714"/>
      <point x="532" y="612" type="qcurve" smooth="yes"/>
      <point x="552" y="584"/>
      <point x="567" y="551" type="qcurve"/>
      <point x="567" y="698" type="line"/>
      <point x="644" y="698" type="line"/>
      <point x="643" y="-0" type="line"/>
    </contour>
    <contour>
      <point x="343" y="644" type="qcurve" smooth="yes"/>
      <point x="279" y="644"/>
      <point x="177" y="553"/>
      <point x="124" y="419"/>
      <point x="124" y="278"/>
      <point x="177" y="144"/>
      <point x="279" y="54"/>
      <point x="405" y="54"/>
      <point x="511" y="148"/>
      <point x="567" y="283"/>
      <point x="567" y="348" type="qcurve" smooth="yes"/>
      <point x="567" y="465"/>
      <point x="433" y="644"/>
    </contour>
  </outline>
</glyph>
<glyph name="uniA78D" format="1">
  <advance width="622"/>
  <unicode hex="A78D"/>
  <outline>
    <contour>
      <point x="315" y="743" type="move" name="above"/>
    </contour>
    <contour>
      <point x="81" y="333" type="line"/>
      <point x="81" y="698" type="line"/>
      <point x="158" y="698" type="line"/>
      <point x="158" y="396" type="line"/>
      <point x="465" y="396" type="line"/>
      <point x="465" y="698" type="line"/>
      <point x="542" y="698" type="line"/>
      <point x="542" y="0" type="line"/>
      <point x="465" y="0" type="line"/>
      <point x="465" y="333" type="line"/>
    </contour>
  </outline>
</glyph>
<glyph name="uniE000" format="1">
  <advance width="644"/>
  <unicode hex="E000"/>
  <outline>
    <contour>
      <point x="341" y="736" type="qcurve" smooth="yes"/>
      <point x="314" y="736" type="line" smooth="yes"/>
      <point x="253" y="736"/>
      <point x="175" y="773"/>
      <point x="175" y="803" type="qcurve" smooth="yes"/>
      <point x="175" y="823"/>
      <point x="197" y="848" type="qcurve"/>
      <point x="237" y="848" type="line"/>
      <point x="230" y="829"/>
      <point x="230" y="820" type="qcurve" smooth="yes"/>
      <point x="230" y="798"/>
      <point x="272" y="782"/>
      <point x="314" y="782" type="qcurve" smooth="yes"/>
      <point x="341" y="782" type="line" smooth="yes"/>
      <point x="383" y="782"/>
      <point x="425" y="798"/>
      <point x="425" y="820" type="qcurve" smooth="yes"/>
      <point x="425" y="832"/>
      <point x="419" y="848" type="qcurve"/>
      <point x="459" y="848" type="line"/>
      <point x="480" y="824"/>
      <point x="480" y="803" type="qcurve" smooth="yes"/>
      <point x="480" y="773"/>
      <point x="402" y="736"/>
    </contour>
  </outline>
</glyph>
<glyph name=".notdef" format="1">
  <advance width="512"/>
  <outline>
    <contour>
      <point x="51" y="0" type="line"/>
      <point x="51" y="546" type="line"/>
      <point x="461" y="546" type="line"/>
      <point x="461" y="0" type="line"/>
    </contour>
    <contour>
      <point x="102" y="51" type="line"/>
      <point x="410" y="51" type="line"/>
      <point x="410" y="495" type="line"/>
      <point x="102" y="495" type="line"/>
    </contour>
  </outline>
</glyph>
